<?xml version="1.0" encoding="UTF-8" standalone="no"?>
<svg width="438px" height="69px" viewBox="0 0 438 69" version="1.1" xmlns="http://www.w3.org/2000/svg" xmlns:xlink="http://www.w3.org/1999/xlink" xmlns:sketch="http://www.bohemiancoding.com/sketch/ns">
    <!-- Generator: Sketch 3.3.2 (12043) - http://www.bohemiancoding.com/sketch -->
    <title>Slice 1</title>
    <desc>Created with Sketch.</desc>
    <defs></defs>
    <g id="Page-1" stroke="none" stroke-width="1" fill="none" fill-rule="evenodd" sketch:type="MSPage">
        <g id="passported-beta" sketch:type="MSLayerGroup" fill="#272425">
            <g id="Group" sketch:type="MSShapeGroup">
                <path d="M88.046,20.902 L98.147,20.902 C99.556,20.902 100.887,21.031 102.142,21.286 C103.397,21.542 104.491,21.984 105.426,22.611 C106.361,23.239 107.103,24.084 107.654,25.146 C108.204,26.209 108.48,27.547 108.48,29.16 C108.48,30.748 108.224,32.08 107.712,33.155 C107.199,34.23 106.495,35.088 105.599,35.728 C104.702,36.369 103.64,36.823 102.411,37.091 C101.182,37.361 99.85,37.495 98.417,37.495 L94.038,37.495 L94.038,48.096 L88.046,45.415 L88.046,20.902 L88.046,20.902 Z M94.039,32.425 L98.033,32.425 C98.571,32.425 99.09,32.374 99.589,32.271 C100.088,32.169 100.536,31.997 100.933,31.752 C101.33,31.51 101.65,31.177 101.894,30.755 C102.137,30.331 102.258,29.8 102.258,29.16 C102.258,28.469 102.098,27.912 101.778,27.489 C101.458,27.066 101.048,26.74 100.549,26.51 C100.05,26.28 99.493,26.132 98.879,26.068 C98.264,26.005 97.674,25.973 97.112,25.973 L94.039,25.973 L94.039,32.425 L94.039,32.425 Z" id="Shape"></path>
                <path d="M129.875,20.902 L134.83,20.902 L146.659,48.097 L139.899,48.097 L137.556,42.335 L126.994,42.335 L124.728,48.097 L118.121,48.097 L129.875,20.902 L129.875,20.902 Z M132.179,28.815 L128.876,37.266 L135.521,37.266 L132.179,28.815 L132.179,28.815 Z" id="Shape"></path>
                <path d="M174.353,27.547 C173.866,26.932 173.207,26.478 172.375,26.184 C171.542,25.89 170.755,25.741 170.013,25.741 C169.577,25.741 169.129,25.794 168.669,25.896 C168.208,25.998 167.772,26.158 167.362,26.375 C166.953,26.594 166.62,26.881 166.364,27.24 C166.107,27.598 165.98,28.034 165.98,28.546 C165.98,29.366 166.287,29.992 166.902,30.427 C167.516,30.864 168.29,31.234 169.225,31.541 C170.16,31.848 171.165,32.156 172.24,32.463 C173.316,32.77 174.321,33.207 175.256,33.769 C176.19,34.333 176.965,35.088 177.579,36.035 C178.194,36.983 178.501,38.25 178.501,39.838 C178.501,41.351 178.219,42.668 177.656,43.795 C177.093,44.922 176.331,45.857 175.371,46.599 C174.411,47.342 173.297,47.892 172.029,48.25 C170.762,48.608 169.424,48.789 168.015,48.789 C166.249,48.789 164.61,48.518 163.099,47.981 C161.588,47.443 160.18,46.573 158.874,45.369 L163.137,40.683 C163.752,41.503 164.526,42.136 165.461,42.583 C166.396,43.031 167.362,43.255 168.361,43.255 C168.847,43.255 169.341,43.198 169.84,43.083 C170.339,42.968 170.787,42.796 171.184,42.564 C171.581,42.333 171.901,42.04 172.144,41.681 C172.388,41.322 172.509,40.9 172.509,40.412 C172.509,39.594 172.195,38.947 171.568,38.473 C170.941,38 170.153,37.597 169.206,37.264 C168.259,36.931 167.234,36.598 166.133,36.265 C165.032,35.932 164.008,35.484 163.06,34.921 C162.113,34.358 161.325,33.615 160.698,32.693 C160.071,31.771 159.757,30.555 159.757,29.044 C159.757,27.584 160.045,26.304 160.621,25.203 C161.198,24.102 161.966,23.18 162.926,22.438 C163.887,21.695 164.994,21.138 166.249,20.766 C167.503,20.396 168.796,20.21 170.128,20.21 C171.665,20.21 173.149,20.428 174.583,20.862 C176.017,21.299 177.311,22.028 178.463,23.052 L174.353,27.547 L174.353,27.547 Z" id="Shape"></path>
                <path d="M207.922,27.547 C207.435,26.932 206.776,26.478 205.944,26.184 C205.111,25.89 204.324,25.741 203.582,25.741 C203.146,25.741 202.698,25.794 202.238,25.896 C201.777,25.998 201.341,26.158 200.931,26.375 C200.522,26.594 200.189,26.881 199.933,27.24 C199.676,27.598 199.549,28.034 199.549,28.546 C199.549,29.366 199.856,29.992 200.471,30.427 C201.085,30.864 201.859,31.234 202.794,31.541 C203.729,31.848 204.734,32.156 205.809,32.463 C206.885,32.77 207.89,33.207 208.825,33.769 C209.759,34.333 210.534,35.088 211.148,36.035 C211.763,36.983 212.07,38.25 212.07,39.838 C212.07,41.351 211.788,42.668 211.225,43.795 C210.662,44.922 209.9,45.857 208.94,46.599 C207.98,47.342 206.866,47.892 205.598,48.25 C204.331,48.608 202.993,48.789 201.584,48.789 C199.818,48.789 198.179,48.518 196.668,47.981 C195.157,47.443 193.749,46.573 192.443,45.369 L196.706,40.683 C197.321,41.503 198.095,42.136 199.03,42.583 C199.965,43.031 200.931,43.255 201.93,43.255 C202.416,43.255 202.91,43.198 203.409,43.083 C203.908,42.968 204.356,42.796 204.753,42.564 C205.15,42.332 205.47,42.04 205.713,41.681 C205.957,41.322 206.078,40.9 206.078,40.412 C206.078,39.594 205.764,38.947 205.137,38.473 C204.51,38 203.722,37.597 202.775,37.264 C201.828,36.931 200.803,36.598 199.702,36.265 C198.601,35.932 197.577,35.484 196.629,34.921 C195.682,34.358 194.894,33.615 194.267,32.693 C193.64,31.771 193.326,30.555 193.326,29.044 C193.326,27.584 193.614,26.304 194.19,25.203 C194.767,24.102 195.535,23.18 196.495,22.438 C197.456,21.695 198.563,21.138 199.818,20.766 C201.072,20.396 202.365,20.21 203.697,20.21 C205.234,20.21 206.718,20.428 208.152,20.862 C209.586,21.299 210.88,22.028 212.032,23.052 L207.922,27.547 L207.922,27.547 Z" id="Shape"></path>
                <path d="M228.049,20.902 L238.15,20.902 C239.559,20.902 240.89,21.031 242.145,21.286 C243.4,21.542 244.494,21.984 245.429,22.611 C246.364,23.239 247.106,24.084 247.657,25.146 C248.207,26.209 248.483,27.547 248.483,29.16 C248.483,30.748 248.227,32.08 247.714,33.155 C247.202,34.23 246.498,35.088 245.602,35.728 C244.705,36.369 243.643,36.823 242.414,37.091 C241.185,37.361 239.853,37.495 238.42,37.495 L234.041,37.495 L234.041,48.096 L228.049,45.415 L228.049,20.902 L228.049,20.902 Z M234.041,32.425 L238.035,32.425 C238.573,32.425 239.092,32.374 239.591,32.271 C240.09,32.169 240.538,31.997 240.935,31.752 C241.332,31.51 241.652,31.177 241.896,30.755 C242.139,30.331 242.26,29.8 242.26,29.16 C242.26,28.469 242.1,27.912 241.78,27.489 C241.46,27.066 241.05,26.74 240.551,26.51 C240.052,26.28 239.495,26.132 238.881,26.068 C238.266,26.005 237.676,25.973 237.114,25.973 L234.041,25.973 L234.041,32.425 L234.041,32.425 Z" id="Shape"></path>
                <path d="M262.31,34.5 C262.31,32.324 262.675,30.351 263.405,28.585 C264.135,26.818 265.153,25.314 266.459,24.072 C267.765,22.83 269.314,21.876 271.106,21.21 C272.898,20.545 274.857,20.212 276.983,20.212 C279.108,20.212 281.067,20.545 282.859,21.21 C284.652,21.876 286.201,22.83 287.507,24.072 C288.813,25.314 289.83,26.818 290.561,28.585 C291.29,30.351 291.655,32.324 291.655,34.5 C291.655,36.676 291.29,38.648 290.561,40.415 C289.831,42.183 288.813,43.686 287.507,44.929 C286.2,46.172 284.652,47.124 282.859,47.79 C281.067,48.456 279.108,48.788 276.983,48.788 C274.857,48.788 272.898,48.456 271.106,47.79 C269.314,47.124 267.764,46.172 266.459,44.929 C265.153,43.687 264.136,42.183 263.405,40.415 C262.675,38.647 262.31,36.676 262.31,34.5 M268.532,34.5 C268.532,35.781 268.73,36.952 269.127,38.015 C269.524,39.077 270.094,39.998 270.836,40.78 C271.579,41.561 272.47,42.17 273.507,42.604 C274.543,43.04 275.701,43.257 276.983,43.257 C278.263,43.257 279.422,43.039 280.459,42.604 C281.496,42.169 282.386,41.561 283.129,40.78 C283.871,39.999 284.441,39.077 284.839,38.015 C285.235,36.952 285.434,35.781 285.434,34.5 C285.434,33.246 285.235,32.08 284.839,31.005 C284.441,29.929 283.871,29.001 283.129,28.219 C282.386,27.439 281.496,26.831 280.459,26.395 C279.423,25.96 278.264,25.742 276.983,25.742 C275.702,25.742 274.544,25.96 273.507,26.395 C272.47,26.831 271.579,27.439 270.836,28.219 C270.094,29.001 269.524,29.929 269.127,31.005 C268.73,32.08 268.532,33.246 268.532,34.5" id="Shape"></path>
                <path d="M307.249,20.902 L317.772,20.902 C319.155,20.902 320.467,21.037 321.71,21.306 C322.951,21.575 324.04,22.023 324.975,22.651 C325.909,23.278 326.651,24.123 327.203,25.185 C327.754,26.248 328.029,27.573 328.029,29.161 C328.029,31.081 327.529,32.714 326.53,34.058 C325.532,35.402 324.072,36.254 322.152,36.612 L329.065,48.097 L321.883,48.097 L316.198,37.227 L313.24,37.227 L313.24,48.097 L307.249,48.097 L307.249,20.902 L307.249,20.902 Z M313.24,32.157 L316.773,32.157 C317.312,32.157 317.881,32.138 318.483,32.099 C319.085,32.061 319.629,31.946 320.115,31.753 C320.601,31.561 321.006,31.261 321.325,30.851 C321.645,30.441 321.805,29.865 321.805,29.122 C321.805,28.431 321.664,27.881 321.383,27.471 C321.101,27.062 320.741,26.748 320.307,26.53 C319.872,26.312 319.372,26.165 318.809,26.088 C318.246,26.012 317.695,25.973 317.158,25.973 L313.24,25.973 L313.24,32.157 L313.24,32.157 Z" id="Shape"></path>
                <path d="M348.232,26.203 L340.473,26.203 L340.473,20.902 L361.982,20.902 L361.982,26.203 L354.224,26.203 L354.224,48.096 L348.232,48.096 L348.232,26.203 Z" id="Shape"></path>
                <path d="M376.769,20.902 L395.245,20.902 L395.245,26.433 L382.761,26.433 L382.761,31.503 L394.553,31.503 L394.553,37.035 L382.761,37.035 L382.761,42.564 L395.935,42.564 L395.935,48.096 L376.769,48.096 L376.769,20.902 Z" id="Shape"></path>
                <path d="M412.26,20.902 L421.248,20.902 C423.424,20.902 425.492,21.146 427.451,21.632 C429.411,22.119 431.119,22.907 432.579,23.994 C434.038,25.083 435.197,26.498 436.055,28.238 C436.913,29.98 437.342,32.093 437.342,34.576 C437.342,36.779 436.926,38.719 436.093,40.396 C435.261,42.073 434.14,43.48 432.732,44.62 C431.326,45.76 429.698,46.624 427.854,47.213 C426.011,47.803 424.078,48.096 422.054,48.096 L412.26,48.096 L412.26,20.902 L412.26,20.902 Z M418.252,42.564 L421.364,42.564 C422.746,42.564 424.033,42.425 425.223,42.142 C426.413,41.861 427.443,41.392 428.315,40.741 C429.185,40.088 429.871,39.23 430.37,38.168 C430.87,37.106 431.119,35.805 431.119,34.268 C431.119,32.937 430.87,31.779 430.37,30.793 C429.871,29.807 429.199,28.994 428.353,28.354 C427.508,27.714 426.515,27.234 425.376,26.913 C424.237,26.594 423.039,26.433 421.785,26.433 L418.251,26.433 L418.251,42.564 L418.252,42.564 Z" id="Shape"></path>
                <path d="M69.403,34.5 C69.403,15.516 54.013,0.126 35.029,0.126 C16.045,0.126 0.655,15.516 0.655,34.5 C0.655,53.36 15.846,68.666 34.659,68.865 C32.54,61.346 28.958,43.965 33.55,23.481 C32.699,26.544 29.931,38.015 31.017,54.426 C29.639,51.647 27.714,46.835 26.707,40.158 L28.596,41.467 L26.598,39.408 C26.223,36.679 26.003,33.652 26.034,30.335 C26.066,26.937 26.29,24.062 26.69,21.637 L29.091,24.252 L26.893,20.527 C28.366,13.156 31.677,10.397 36.436,10.1 C42.153,9.743 42.082,14.897 38.388,31.384 L34.847,35.244 L38.088,32.718 C37.973,33.222 37.857,33.732 37.736,34.256 C34.981,49.332 33.688,54.59 33.093,56.383 C33.491,60.438 34.106,64.638 35.006,68.873 C35.014,68.873 35.021,68.874 35.029,68.874 C54.013,68.874 69.403,53.484 69.403,34.5" id="Shape"></path>
            </g>
        </g>
    </g>
</svg>