<?xml version="1.0" encoding="UTF-8" standalone="no"?>
<svg width="317px" height="52px" viewBox="0 0 317 52" version="1.1" xmlns="http://www.w3.org/2000/svg" xmlns:xlink="http://www.w3.org/1999/xlink">
    <!-- Generator: Sketch 3.8.3 (29802) - http://www.bohemiancoding.com/sketch -->
    <title>Group</title>
    <desc>Created with Sketch.</desc>
    <defs></defs>
    <g id="Page-1" stroke="none" stroke-width="1" fill="none" fill-rule="evenodd">
        <g id="Group" fill="#FFFFFF">
            <path d="M79.884,36.93 C78.954,36.961 78.288,36.62 78.118,36.047 C78.071,35.907 78.133,35.83 78.288,35.846 C79.666,35.954 82.238,35.381 83.121,35.412 C83.771,35.427 84.36,35.598 84.592,36.201 C84.638,36.325 84.608,36.449 84.406,36.433 C83.647,36.356 82.672,36.511 81.773,36.665 C81.789,37.037 81.68,37.548 81.262,38.307 C80.333,39.995 79.016,42.163 77.808,44.998 C77.746,45.152 77.669,45.152 77.56,45.044 C77.343,44.843 77.157,44.378 77.358,43.635 C77.714,42.364 79.387,39.004 80.827,36.821 C80.473,36.883 80.163,36.915 79.884,36.93 L79.884,36.93 Z" id="Shape"></path>
            <path d="M86.221,45.201 C84.92,45.201 84.595,44.256 85.059,42.909 C85.571,41.406 86.917,39.796 86.67,39.656 C86.453,39.532 84.765,40.586 83.866,42.056 C83.308,42.97 82.736,44.054 82.364,44.999 C82.302,45.138 82.194,45.169 82.101,45.061 C81.853,44.783 81.714,44.348 82.039,43.419 C82.581,41.87 85.802,36.418 87.057,34.855 C87.197,34.668 87.351,34.684 87.429,34.871 C87.63,35.319 87.583,36.094 86.995,37.07 C86.623,37.689 85.802,38.944 85.136,39.981 C85.771,39.362 86.576,38.85 86.995,38.897 C87.521,38.959 88.002,39.733 87.599,40.523 C87.258,41.205 86.515,42.335 86.159,43.14 C85.772,44.038 85.849,44.767 86.423,44.736 C87.058,44.705 87.909,43.59 88.39,42.598 C88.452,42.459 88.607,42.459 88.668,42.583 C88.746,42.753 88.746,43.078 88.514,43.543 C88.08,44.426 87.134,45.201 86.221,45.201 L86.221,45.201 Z" id="Shape"></path>
            <path d="M91.072,44.751 C92.357,44.813 93.488,43.574 94.154,42.552 C94.231,42.428 94.355,42.428 94.417,42.568 C94.479,42.692 94.433,43.126 94.154,43.528 C93.504,44.472 92.31,45.185 91.118,45.201 C89.151,45.231 88.47,43.296 89.476,41.298 C90.482,39.3 92.063,38.495 92.837,38.944 C93.224,39.175 93.503,39.408 93.75,39.749 C94.029,40.121 93.905,41.065 93.255,41.855 C92.496,42.785 91.458,43.187 90.374,42.304 C89.879,43.729 90.25,44.705 91.072,44.751 L91.072,44.751 Z M92.357,41.189 C92.853,40.539 93.193,39.733 92.976,39.563 C92.651,39.299 91.366,40.229 90.638,41.701 C90.591,41.794 90.545,41.887 90.514,41.964 C91.273,42.444 91.908,41.778 92.357,41.189 L92.357,41.189 Z" id="Shape"></path>
            <path d="M105.664,45.216 C104.487,45.169 104.022,44.101 104.41,42.862 C104.735,41.824 105.68,40.663 106.346,39.92 C105.649,40.354 104.968,40.508 104.456,40.508 C103.435,42.847 101.823,45.186 100.197,45.186 C99.159,45.186 98.323,44.009 99.066,42.228 C99.376,41.469 100.042,40.153 100.708,38.959 C100.197,38.944 99.856,38.728 99.717,38.525 C99.578,38.324 99.655,38.2 99.888,38.215 C100.383,38.246 100.786,38.199 101.158,38.169 C101.638,37.316 102.056,36.589 102.335,36.248 C102.475,36.031 102.63,36.047 102.707,36.248 C102.878,36.666 102.862,37.208 102.49,38.029 C102.986,38.06 103.28,38.323 103.42,38.571 C103.513,38.741 103.436,38.819 103.203,38.803 C102.892,38.787 102.506,38.787 102.088,38.819 C101.484,39.872 100.585,41.359 99.997,42.66 C99.471,43.821 99.687,44.766 100.322,44.751 C101.251,44.72 102.878,42.814 103.838,40.414 C102.676,39.949 104.194,37.858 104.829,37.828 C105.34,37.797 105.185,38.757 104.767,39.764 C105.31,39.718 105.882,39.454 106.455,39.052 C106.656,38.912 106.765,38.865 106.904,39.021 C107.198,39.362 107.601,40.058 107.136,40.585 C106.393,41.421 105.618,42.459 105.355,43.279 C105.077,44.131 105.278,44.751 105.743,44.766 C106.378,44.796 107.168,43.79 107.679,42.628 C107.741,42.504 107.849,42.473 107.911,42.628 C107.988,42.814 108.019,43.201 107.834,43.635 C107.445,44.566 106.516,45.247 105.664,45.216 L105.664,45.216 Z" id="Shape"></path>
            <path d="M113.844,38.974 C113.984,38.773 114.108,38.742 114.216,38.881 C114.448,39.16 114.572,39.826 114.2,40.601 C113.859,41.297 113.085,42.459 112.714,43.28 C112.326,44.147 112.311,44.813 112.838,44.783 C113.473,44.752 114.324,43.698 114.866,42.63 C114.943,42.49 115.052,42.475 115.114,42.614 C115.176,42.754 115.176,43.14 114.974,43.575 C114.572,44.427 113.596,45.278 112.744,45.231 C111.908,45.185 111.474,44.689 111.474,43.961 C110.978,44.596 110.282,45.169 109.537,45.169 C108.098,45.169 107.803,43.202 109.089,41.328 C110.343,39.501 111.567,38.804 112.341,38.804 C113.007,38.804 113.317,39.315 113.285,39.919 C113.489,39.547 113.674,39.222 113.844,38.974 L113.844,38.974 Z M112.606,39.61 C112.11,39.563 110.979,40.57 110.127,41.948 C109.307,43.28 109.105,44.643 109.709,44.659 C110.344,44.675 111.149,43.683 111.939,42.32 C112.916,40.616 113.055,39.656 112.606,39.61 L112.606,39.61 Z" id="Shape"></path>
            <path d="M120.616,38.881 C120.787,38.711 120.88,38.741 120.911,38.943 C120.957,39.268 120.771,39.671 120.275,40.29 C119.501,41.266 118.091,42.753 116.605,45.107 C116.527,45.23 116.45,45.338 116.294,45.261 C115.69,44.967 115.474,44.657 115.52,43.836 C115.582,42.752 116,40.537 116.527,38.927 C116.589,38.756 116.714,38.695 116.838,38.803 C117.349,39.237 117.426,39.81 117.209,40.754 C116.931,41.946 116.62,42.814 116.403,44.502 C117.502,42.692 119.563,39.965 120.616,38.881 L120.616,38.881 Z" id="Shape"></path>
            <path d="M122.817,44.751 C124.102,44.813 125.233,43.574 125.899,42.552 C125.976,42.428 126.1,42.428 126.162,42.568 C126.224,42.692 126.178,43.126 125.899,43.528 C125.249,44.472 124.055,45.185 122.863,45.201 C120.896,45.231 120.215,43.296 121.221,41.298 C122.227,39.3 123.808,38.495 124.582,38.944 C124.969,39.175 125.248,39.408 125.495,39.749 C125.774,40.121 125.65,41.065 125,41.855 C124.241,42.785 123.203,43.187 122.119,42.304 C121.625,43.729 121.996,44.705 122.817,44.751 L122.817,44.751 Z M124.102,41.189 C124.598,40.539 124.938,39.733 124.721,39.563 C124.396,39.299 123.111,40.229 122.383,41.701 C122.336,41.794 122.29,41.887 122.259,41.964 C123.018,42.444 123.653,41.778 124.102,41.189 L124.102,41.189 Z" id="Shape"></path>
            <path d="M127.852,44.72 C128.595,44.782 129.679,43.667 130.284,42.474 C130.392,42.273 130.562,42.257 130.625,42.474 C130.702,42.722 130.641,43.063 130.47,43.435 C130.253,43.9 129.123,45.185 127.884,45.154 C126.815,45.123 126.242,44.38 126.598,42.707 C127.171,40.013 128.937,37.209 130.517,35.567 C130.749,35.319 130.966,35.289 131.183,35.49 C131.632,35.892 131.725,36.466 131.539,37.193 C131.059,39.098 129.324,40.957 127.945,41.855 C127.326,43.373 127.155,44.659 127.852,44.72 L127.852,44.72 Z M131.011,36.868 C130.81,36.745 129.664,38.464 128.595,40.446 C128.456,40.694 128.332,40.941 128.224,41.189 C130.345,39.47 131.213,36.992 131.011,36.868 L131.011,36.868 Z" id="Shape"></path>
            <path d="M140.524,38.974 C140.664,38.773 140.788,38.742 140.896,38.881 C141.128,39.16 141.252,39.826 140.88,40.601 C140.539,41.297 139.765,42.459 139.394,43.28 C139.006,44.147 138.991,44.813 139.518,44.783 C140.153,44.752 141.004,43.698 141.546,42.63 C141.623,42.49 141.732,42.475 141.794,42.614 C141.856,42.754 141.856,43.14 141.654,43.575 C141.252,44.427 140.276,45.278 139.424,45.231 C138.588,45.185 138.154,44.689 138.154,43.961 C137.658,44.596 136.962,45.169 136.217,45.169 C134.778,45.169 134.483,43.202 135.769,41.328 C137.023,39.501 138.247,38.804 139.021,38.804 C139.687,38.804 139.997,39.315 139.965,39.919 C140.168,39.547 140.354,39.222 140.524,38.974 L140.524,38.974 Z M139.286,39.61 C138.79,39.563 137.659,40.57 136.807,41.948 C135.987,43.28 135.785,44.643 136.389,44.659 C137.024,44.675 137.829,43.683 138.619,42.32 C139.595,40.616 139.735,39.656 139.286,39.61 L139.286,39.61 Z" id="Shape"></path>
            <path d="M145.452,45.587 C144.6,47.662 143.501,50.125 142.246,50.621 C141.936,50.744 141.627,50.698 141.348,50.295 C141.023,49.831 140.744,49.289 141.038,48.375 C141.487,46.981 142.819,46.036 144.352,45.448 C144.507,45.107 144.646,44.735 144.801,44.379 C144.352,44.828 143.81,45.153 143.237,45.153 C141.812,45.153 141.533,43.217 142.788,41.359 C143.996,39.562 145.251,38.865 146.041,38.865 C146.66,38.865 146.97,39.345 146.954,39.887 C147.141,39.577 147.31,39.298 147.466,39.035 C147.59,38.818 147.744,38.803 147.853,38.942 C148.085,39.22 148.209,39.886 147.822,40.645 C147.358,41.575 146.382,43.449 145.731,44.951 C147.033,44.301 147.884,43.449 148.503,42.628 C148.596,42.504 148.735,42.504 148.767,42.659 C148.798,42.799 148.72,43.138 148.457,43.557 C147.852,44.503 146.737,45.123 145.452,45.587 L145.452,45.587 Z M141.657,49.753 C141.859,50.048 143.082,48.437 144.089,46.083 C142.076,47.26 141.394,49.382 141.657,49.753 L141.657,49.753 Z M146.272,39.656 C145.793,39.625 144.662,40.616 143.81,41.964 C142.973,43.296 142.803,44.659 143.422,44.675 C144.026,44.69 144.817,43.714 145.607,42.352 C146.583,40.647 146.721,39.687 146.272,39.656 L146.272,39.656 Z" id="Shape"></path>
            <path d="M151.138,44.751 C152.423,44.813 153.554,43.574 154.22,42.552 C154.297,42.428 154.421,42.428 154.483,42.568 C154.545,42.692 154.499,43.126 154.22,43.528 C153.57,44.472 152.376,45.185 151.184,45.201 C149.217,45.231 148.536,43.296 149.542,41.298 C150.548,39.3 152.129,38.495 152.903,38.944 C153.29,39.175 153.569,39.408 153.816,39.749 C154.095,40.121 153.971,41.065 153.321,41.855 C152.562,42.785 151.524,43.187 150.44,42.304 C149.946,43.729 150.317,44.705 151.138,44.751 L151.138,44.751 Z M152.423,41.189 C152.919,40.539 153.259,39.733 153.042,39.563 C152.717,39.299 151.432,40.229 150.704,41.701 C150.657,41.794 150.611,41.887 150.58,41.964 C151.339,42.444 151.974,41.778 152.423,41.189 L152.423,41.189 Z" id="Shape"></path>
            <path d="M159.488,38.881 C159.999,38.958 160.48,39.718 160.092,40.523 C159.766,41.205 159.008,42.351 158.652,43.156 C158.249,44.054 158.341,44.783 158.899,44.752 C159.535,44.721 160.294,43.698 160.882,42.614 C160.96,42.474 161.069,42.474 161.146,42.598 C161.254,42.769 161.223,43.125 161.006,43.575 C160.588,44.442 159.612,45.231 158.714,45.231 C157.398,45.231 157.088,44.271 157.537,42.923 C158.048,41.405 159.411,39.764 159.132,39.64 C158.978,39.578 158.079,40.012 157.088,41.096 C156.174,42.087 155.492,43.575 154.826,45.03 C154.764,45.17 154.672,45.231 154.532,45.092 C154.222,44.782 154.13,44.271 154.377,43.496 C154.688,42.52 155.88,40.368 156.856,38.928 C156.964,38.757 157.088,38.773 157.181,38.928 C157.413,39.315 157.398,39.841 157.227,40.399 C157.923,39.656 158.977,38.804 159.488,38.881 L159.488,38.881 Z" id="Shape"></path>
            <path d="M166.151,39.827 C166.476,40.477 165.856,41.298 165.547,42.135 C165.485,42.321 165.423,42.366 165.222,42.258 C164.85,42.072 164.633,41.608 164.85,40.911 C165.021,40.353 165.486,39.687 165.269,39.516 C165.005,39.299 163.843,40.29 163.147,41.701 C162.295,43.451 162.621,44.736 163.534,44.752 C164.835,44.768 165.95,43.528 166.586,42.553 C166.663,42.429 166.803,42.413 166.864,42.569 C166.911,42.693 166.848,43.08 166.586,43.498 C165.997,44.412 164.774,45.171 163.597,45.186 C161.63,45.217 160.964,43.296 161.97,41.298 C162.962,39.347 164.526,38.51 165.3,38.975 C165.717,39.222 165.965,39.47 166.151,39.827 L166.151,39.827 Z" id="Shape"></path>
            <path d="M170.071,45.526 C169.204,47.601 168.104,50.094 166.818,50.59 C166.524,50.698 166.23,50.698 165.935,50.265 C165.625,49.8 165.316,49.258 165.625,48.344 C166.09,46.95 167.406,46.021 168.939,45.417 C169.094,45.061 169.249,44.674 169.419,44.302 C168.939,44.797 168.35,45.2 167.731,45.154 C166.616,45.061 166.585,43.93 166.941,42.909 C167.282,41.918 168.041,40.384 169.047,38.99 C169.171,38.82 169.325,38.836 169.434,38.99 C169.806,39.486 169.713,40.136 169.14,41.05 C168.582,41.948 168.242,42.584 167.948,43.312 C167.638,44.071 167.67,44.613 168.025,44.644 C168.629,44.69 169.404,43.699 170.194,42.352 C170.86,41.206 171.526,39.812 172.068,39.022 C172.207,38.821 172.315,38.79 172.455,38.914 C172.672,39.192 172.796,39.858 172.393,40.648 C171.928,41.546 170.983,43.405 170.332,44.907 C171.54,44.257 172.454,43.374 173.073,42.522 C173.151,42.414 173.29,42.398 173.321,42.553 C173.352,42.693 173.305,43.048 173.043,43.451 C172.44,44.411 171.356,45 170.071,45.526 L170.071,45.526 Z M166.245,49.739 C166.447,50.033 167.717,48.344 168.677,46.068 C166.664,47.229 165.967,49.351 166.245,49.739 L166.245,49.739 Z" id="Shape"></path>
            <path d="M180.28,43.9 C180.28,44.07 180.264,44.24 180.249,44.426 C180.838,44.038 181.457,43.264 181.859,42.459 C181.953,42.272 182.107,42.257 182.184,42.474 C182.262,42.706 182.169,43.047 182.03,43.404 C181.875,43.776 181.1,44.689 180.172,45.014 C179.924,46.578 179.242,48.298 178.499,49.227 C177.973,49.877 177.585,49.94 177.12,49.537 C176.733,49.212 176.268,48.608 176.439,47.292 C176.873,43.838 180.434,37.906 182.154,35.335 C182.278,35.149 182.479,35.165 182.541,35.351 C182.728,35.877 182.681,36.543 182.015,37.674 C181.38,38.728 180.311,40.478 179.475,42.104 C180.063,42.289 180.296,42.877 180.28,43.9 L180.28,43.9 Z M177.291,48.933 C177.632,49.382 178.793,47.245 179.305,45.122 C178.856,45.076 178.546,44.875 178.36,44.503 C177.492,46.563 176.935,48.484 177.291,48.933 L177.291,48.933 Z M179.537,43.559 C179.552,42.986 179.397,42.505 179.289,42.552 C179.134,42.614 178.994,43.435 178.979,43.791 C178.963,44.286 179.102,44.611 179.397,44.674 C179.475,44.302 179.521,43.915 179.537,43.559 L179.537,43.559 Z" id="Shape"></path>
            <path d="M190.396,45.231 C189.204,45.169 188.724,44.131 189.111,42.862 C189.421,41.824 190.396,40.678 191.048,39.92 C190.351,40.369 189.669,40.524 189.174,40.524 C188.739,41.221 188.105,41.748 187.253,41.779 C186.943,43.095 185.983,44.69 184.837,45.062 C184.279,45.248 183.474,45.217 182.87,44.396 C182.204,43.482 182.436,42.135 183.102,40.912 C183.69,39.843 184.665,38.975 185.595,38.898 C186.06,38.851 186.308,39.006 186.633,39.424 C187.004,39.904 187.453,39.997 187.376,41.128 C187.376,41.205 187.345,41.282 187.345,41.375 C187.779,41.298 188.228,41.004 188.553,40.415 C187.407,39.92 188.925,37.875 189.544,37.859 C190.086,37.844 189.808,38.974 189.498,39.796 C190.04,39.719 190.582,39.455 191.17,39.053 C191.372,38.913 191.511,38.866 191.635,39.022 C191.914,39.347 192.301,40.075 191.836,40.602 C191.108,41.422 190.365,42.475 190.086,43.296 C189.792,44.148 189.978,44.752 190.474,44.783 C191.093,44.829 191.883,43.792 192.378,42.661 C192.44,42.521 192.549,42.49 192.61,42.63 C192.688,42.816 192.75,43.234 192.564,43.637 C192.146,44.566 191.248,45.278 190.396,45.231 L190.396,45.231 Z M185.238,40.058 C184.82,40.414 184.386,40.926 184.046,41.514 C183.38,42.692 183.163,44.101 183.566,44.456 C183.969,44.812 184.929,44.255 185.704,42.846 C185.952,42.381 186.138,41.963 186.246,41.576 C185.642,41.236 185.254,40.616 185.238,40.058 L185.238,40.058 Z M186.462,40.043 C186.4,39.531 186.06,39.655 185.997,40.105 C185.951,40.492 186.091,40.879 186.385,41.127 C186.478,40.678 186.493,40.306 186.462,40.043 L186.462,40.043 Z" id="Shape"></path>
            <path d="M198.099,38.525 C197.944,38.308 198.037,38.2 198.269,38.215 C198.703,38.231 199.136,38.199 199.554,38.153 C200.034,37.3 200.468,36.573 200.732,36.232 C200.871,36.031 201.026,36.046 201.103,36.232 C201.274,36.666 201.274,37.177 200.902,37.982 C201.506,37.966 201.739,38.246 201.862,38.447 C201.97,38.633 201.909,38.741 201.676,38.741 C201.335,38.695 200.856,38.741 200.468,38.803 C199.864,39.84 198.982,41.343 198.393,42.644 C197.882,43.775 198.052,44.735 198.703,44.766 C199.4,44.796 200.283,43.697 200.856,42.536 C200.949,42.35 201.119,42.319 201.181,42.536 C201.258,42.784 201.181,43.062 201.026,43.419 C200.825,43.868 199.802,45.231 198.563,45.185 C197.542,45.154 196.72,44.008 197.463,42.227 C197.788,41.453 198.439,40.152 199.105,38.928 C198.578,38.928 198.222,38.696 198.099,38.525 L198.099,38.525 Z" id="Shape"></path>
            <path d="M205.147,45.201 C203.846,45.201 203.52,44.256 203.985,42.909 C204.497,41.406 205.843,39.796 205.596,39.656 C205.379,39.532 203.691,40.586 202.792,42.056 C202.234,42.97 201.661,44.054 201.29,44.999 C201.228,45.138 201.119,45.169 201.026,45.061 C200.778,44.783 200.639,44.348 200.964,43.419 C201.506,41.87 204.727,36.418 205.982,34.855 C206.122,34.668 206.276,34.684 206.354,34.871 C206.555,35.319 206.508,36.094 205.92,37.07 C205.548,37.689 204.727,38.944 204.062,39.981 C204.697,39.362 205.501,38.85 205.92,38.897 C206.446,38.959 206.927,39.733 206.524,40.523 C206.183,41.205 205.44,42.335 205.084,43.14 C204.697,44.038 204.774,44.767 205.348,44.736 C205.983,44.705 206.834,43.59 207.315,42.598 C207.377,42.459 207.532,42.459 207.593,42.583 C207.671,42.753 207.671,43.078 207.439,43.543 C207.006,44.426 206.061,45.201 205.147,45.201 L205.147,45.201 Z" id="Shape"></path>
            <path d="M209.997,44.751 C211.282,44.813 212.413,43.574 213.079,42.552 C213.156,42.428 213.28,42.428 213.342,42.568 C213.404,42.692 213.358,43.126 213.079,43.528 C212.429,44.472 211.235,45.185 210.043,45.201 C208.076,45.231 207.395,43.296 208.401,41.298 C209.407,39.3 210.988,38.495 211.762,38.944 C212.149,39.175 212.428,39.408 212.675,39.749 C212.954,40.121 212.83,41.065 212.18,41.855 C211.421,42.785 210.383,43.187 209.299,42.304 C208.805,43.729 209.176,44.705 209.997,44.751 L209.997,44.751 Z M211.282,41.189 C211.778,40.539 212.118,39.733 211.901,39.563 C211.576,39.299 210.291,40.229 209.563,41.701 C209.516,41.794 209.47,41.887 209.439,41.964 C210.198,42.444 210.833,41.778 211.282,41.189 L211.282,41.189 Z" id="Shape"></path>
            <path d="M222.638,38.866 C223.164,38.882 223.444,39.703 223.242,40.384 C223.985,39.656 225.022,38.929 225.534,38.945 C226.092,38.96 226.215,39.874 225.905,40.648 C225.627,41.345 224.868,42.367 224.48,43.141 C224.046,44.024 224.263,44.737 224.821,44.721 C225.456,44.705 226.153,43.684 226.758,42.599 C226.835,42.46 226.959,42.46 227.036,42.569 C227.113,42.678 227.067,43.188 226.896,43.545 C226.462,44.428 225.471,45.202 224.573,45.202 C223.226,45.202 222.73,44.133 223.303,42.863 C223.876,41.578 225.254,39.842 225.022,39.765 C224.898,39.719 224.372,39.889 223.365,40.896 C222.08,42.181 221.321,43.668 220.671,45.124 C220.578,45.311 220.454,45.356 220.315,45.202 C220.051,44.97 219.835,44.365 220.284,43.25 C220.796,41.965 222.469,39.828 222.158,39.72 C221.972,39.642 221.214,40.06 220.222,41.145 C219.308,42.136 218.565,43.577 217.946,45.032 C217.884,45.172 217.791,45.233 217.651,45.11 C217.31,44.815 217.233,44.304 217.497,43.514 C217.822,42.538 218.952,40.355 219.929,38.899 C220.037,38.729 220.16,38.744 220.254,38.899 C220.517,39.333 220.471,39.937 220.238,40.556 C220.919,39.764 222.08,38.85 222.638,38.866 L222.638,38.866 Z" id="Shape"></path>
            <path d="M232.198,41.824 C231.873,43.14 230.897,44.705 229.751,45.093 C229.193,45.279 228.419,45.217 227.8,44.411 C227.118,43.513 227.351,42.165 228.047,40.927 C228.636,39.873 229.58,38.975 230.51,38.913 C230.99,38.882 231.253,39.021 231.563,39.439 C231.919,39.919 232.384,40.028 232.292,41.143 C232.276,41.266 232.276,41.374 232.261,41.498 C232.354,41.498 232.447,41.468 232.571,41.468 C232.679,41.468 232.679,41.545 232.618,41.622 C232.508,41.747 232.353,41.809 232.198,41.824 L232.198,41.824 Z M230.882,41.437 C230.557,41.189 230.185,40.647 230.169,40.074 C229.751,40.43 229.302,40.941 228.977,41.53 C228.327,42.707 228.094,44.132 228.497,44.472 C228.931,44.828 229.876,44.286 230.635,42.862 C230.867,42.428 231.053,41.995 231.177,41.623 C231.067,41.577 230.975,41.514 230.882,41.437 L230.882,41.437 Z M231.408,40.058 C231.331,39.563 231.02,39.656 230.943,40.105 C230.866,40.523 231.036,40.972 231.284,41.205 C231.408,40.724 231.454,40.337 231.408,40.058 L231.408,40.058 Z" id="Shape"></path>
            <path d="M237.62,44.783 C238.255,44.752 239.092,43.714 239.634,42.645 C239.711,42.505 239.82,42.505 239.882,42.629 C239.944,42.769 239.959,43.171 239.758,43.589 C239.34,44.442 238.379,45.262 237.528,45.216 C236.692,45.169 236.273,44.704 236.273,43.977 C235.778,44.596 235.081,45.169 234.353,45.169 C232.913,45.169 232.633,43.202 233.904,41.344 C235.128,39.547 236.367,38.85 237.141,38.85 C237.776,38.85 238.085,39.33 238.07,39.904 C238.907,38.308 240.084,36.202 240.641,35.413 C240.795,35.196 240.935,35.211 241.012,35.413 C241.229,35.924 241.183,36.59 240.533,37.751 C239.79,39.083 238.303,41.639 237.528,43.28 C237.109,44.178 237.094,44.813 237.62,44.783 L237.62,44.783 Z M234.926,41.963 C234.089,43.295 233.919,44.643 234.523,44.658 C235.143,44.674 235.979,43.76 236.708,42.35 C237.605,40.63 237.838,39.655 237.389,39.639 C236.908,39.625 235.777,40.601 234.926,41.963 L234.926,41.963 Z" id="Shape"></path>
            <path d="M248.231,45.185 C247.054,45.123 246.589,44.07 246.976,42.815 C247.301,41.778 248.231,40.631 248.897,39.888 C248.215,40.322 247.518,40.477 247.039,40.477 C245.753,43.171 244.081,45.123 242.237,45.154 C240.27,45.185 239.604,43.264 240.611,41.282 C241.587,39.362 243.167,38.495 243.941,38.944 C244.328,39.175 244.607,39.392 244.855,39.733 C245.118,40.105 244.963,41.019 244.343,41.809 C243.615,42.753 242.577,43.14 241.493,42.273 C240.998,43.683 241.385,44.689 242.175,44.72 C243.878,44.797 245.582,42.351 246.434,40.383 C245.242,39.888 246.759,37.828 247.41,37.797 C247.89,37.781 247.735,38.727 247.348,39.733 C247.89,39.656 248.432,39.408 249.036,39.005 C249.222,38.881 249.361,38.804 249.47,38.958 C249.78,39.299 250.166,40.043 249.702,40.554 C248.973,41.36 248.183,42.412 247.921,43.248 C247.657,44.101 247.843,44.72 248.308,44.735 C248.958,44.766 249.748,43.744 250.245,42.597 C250.307,42.473 250.415,42.443 250.476,42.582 C250.554,42.752 250.585,43.154 250.399,43.588 C250.013,44.519 249.083,45.231 248.231,45.185 L248.231,45.185 Z M243.461,41.173 C243.957,40.538 244.282,39.733 244.081,39.563 C243.74,39.269 242.47,40.245 241.758,41.669 C241.711,41.746 241.68,41.855 241.634,41.932 C242.393,42.397 242.996,41.762 243.461,41.173 L243.461,41.173 Z" id="Shape"></path>
            <path d="M255.576,38.881 C256.087,38.958 256.567,39.718 256.18,40.523 C255.855,41.205 255.096,42.351 254.741,43.156 C254.338,44.054 254.43,44.783 254.988,44.752 C255.624,44.721 256.383,43.698 256.97,42.614 C257.048,42.474 257.157,42.474 257.234,42.598 C257.342,42.769 257.311,43.125 257.094,43.575 C256.676,44.442 255.7,45.231 254.802,45.231 C253.486,45.231 253.176,44.271 253.625,42.923 C254.136,41.405 255.499,39.764 255.22,39.64 C255.066,39.578 254.167,40.012 253.176,41.096 C252.262,42.087 251.58,43.575 250.914,45.03 C250.852,45.17 250.76,45.231 250.62,45.092 C250.31,44.782 250.218,44.271 250.465,43.496 C250.776,42.52 251.968,40.368 252.944,38.928 C253.052,38.757 253.176,38.773 253.269,38.928 C253.501,39.315 253.486,39.841 253.315,40.399 C254.012,39.656 255.065,38.804 255.576,38.881 L255.576,38.881 Z" id="Shape"></path>
            <path d="M264.191,43.9 C264.191,44.07 264.175,44.24 264.16,44.426 C264.749,44.038 265.368,43.264 265.77,42.459 C265.864,42.272 266.018,42.257 266.095,42.474 C266.173,42.706 266.08,43.047 265.941,43.404 C265.786,43.776 265.011,44.689 264.083,45.014 C263.835,46.578 263.153,48.298 262.41,49.227 C261.884,49.877 261.496,49.94 261.031,49.537 C260.644,49.212 260.179,48.608 260.35,47.292 C260.784,43.838 264.345,37.906 266.065,35.335 C266.189,35.149 266.39,35.165 266.452,35.351 C266.639,35.877 266.592,36.543 265.926,37.674 C265.291,38.728 264.223,40.478 263.386,42.104 C263.975,42.289 264.207,42.877 264.191,43.9 L264.191,43.9 Z M261.202,48.933 C261.543,49.382 262.704,47.245 263.216,45.122 C262.767,45.076 262.457,44.875 262.271,44.503 C261.403,46.563 260.846,48.484 261.202,48.933 L261.202,48.933 Z M263.448,43.559 C263.463,42.986 263.308,42.505 263.2,42.552 C263.045,42.614 262.905,43.435 262.89,43.791 C262.874,44.286 263.013,44.611 263.308,44.674 C263.386,44.302 263.433,43.915 263.448,43.559 L263.448,43.559 Z" id="Shape"></path>
            <path d="M271.89,38.974 C272.03,38.773 272.154,38.742 272.262,38.881 C272.494,39.16 272.618,39.826 272.246,40.601 C271.905,41.297 271.131,42.459 270.76,43.28 C270.372,44.147 270.357,44.813 270.884,44.783 C271.519,44.752 272.37,43.698 272.912,42.63 C272.989,42.49 273.098,42.475 273.16,42.614 C273.222,42.754 273.222,43.14 273.02,43.575 C272.618,44.427 271.642,45.278 270.79,45.231 C269.954,45.185 269.52,44.689 269.52,43.961 C269.024,44.596 268.328,45.169 267.583,45.169 C266.144,45.169 265.849,43.202 267.135,41.328 C268.389,39.501 269.613,38.804 270.387,38.804 C271.053,38.804 271.363,39.315 271.331,39.919 C271.534,39.547 271.72,39.222 271.89,38.974 L271.89,38.974 Z M270.651,39.61 C270.155,39.563 269.024,40.57 268.172,41.948 C267.352,43.28 267.15,44.643 267.754,44.659 C268.389,44.675 269.194,43.683 269.984,42.32 C270.961,40.616 271.101,39.656 270.651,39.61 L270.651,39.61 Z" id="Shape"></path>
            <path d="M278.242,38.866 C278.768,38.882 279.048,39.703 278.846,40.384 C279.59,39.656 280.627,38.929 281.139,38.945 C281.697,38.96 281.821,39.874 281.51,40.648 C281.232,41.345 280.473,42.367 280.085,43.141 C279.651,44.024 279.868,44.737 280.426,44.721 C281.061,44.705 281.758,43.684 282.363,42.599 C282.44,42.46 282.564,42.46 282.641,42.569 C282.718,42.678 282.672,43.188 282.501,43.545 C282.067,44.428 281.076,45.202 280.178,45.202 C278.831,45.202 278.335,44.133 278.908,42.863 C279.481,41.578 280.859,39.842 280.627,39.765 C280.503,39.719 279.977,39.889 278.97,40.896 C277.685,42.181 276.926,43.668 276.276,45.124 C276.183,45.311 276.059,45.356 275.92,45.202 C275.656,44.97 275.44,44.365 275.889,43.25 C276.401,41.965 278.074,39.828 277.763,39.72 C277.577,39.642 276.819,40.06 275.827,41.145 C274.913,42.136 274.17,43.577 273.551,45.032 C273.489,45.172 273.396,45.233 273.256,45.11 C272.915,44.815 272.838,44.304 273.102,43.514 C273.427,42.538 274.557,40.355 275.534,38.899 C275.642,38.729 275.765,38.744 275.859,38.899 C276.122,39.333 276.076,39.937 275.843,40.556 C276.523,39.764 277.685,38.85 278.242,38.866 L278.242,38.866 Z" id="Shape"></path>
            <path d="M282.955,42.923 C283.342,41.793 284.364,39.965 284.937,39.16 C285.076,38.973 285.184,38.928 285.308,39.066 C285.54,39.314 285.664,39.98 285.292,40.754 C284.967,41.436 284.316,42.488 283.991,43.263 C283.62,44.161 283.65,44.766 284.146,44.735 C284.843,44.704 285.695,43.682 286.16,42.613 C286.237,42.473 286.346,42.489 286.407,42.613 C286.531,42.861 286.485,43.186 286.299,43.574 C285.835,44.534 284.859,45.184 283.991,45.184 C282.815,45.185 282.521,44.194 282.955,42.923 L282.955,42.923 Z M286.408,38.881 C286.207,39.098 285.773,39.052 285.541,38.649 C285.293,38.231 285.371,37.766 285.619,37.503 C285.866,37.239 286.315,37.425 286.516,37.844 C286.719,38.247 286.61,38.665 286.408,38.881 L286.408,38.881 Z" id="Shape"></path>
            <path d="M288.191,44.72 C288.934,44.782 290.018,43.667 290.623,42.474 C290.731,42.273 290.901,42.257 290.964,42.474 C291.041,42.722 290.98,43.063 290.809,43.435 C290.592,43.9 289.462,45.185 288.223,45.154 C287.154,45.123 286.581,44.38 286.937,42.707 C287.51,40.013 289.276,37.209 290.856,35.567 C291.088,35.319 291.305,35.289 291.522,35.49 C291.971,35.892 292.064,36.466 291.878,37.193 C291.398,39.098 289.663,40.957 288.284,41.855 C287.665,43.373 287.494,44.659 288.191,44.72 L288.191,44.72 Z M291.351,36.868 C291.15,36.745 290.004,38.464 288.935,40.446 C288.796,40.694 288.672,40.941 288.564,41.189 C290.685,39.47 291.553,36.992 291.351,36.868 L291.351,36.868 Z" id="Shape"></path>
            <path d="M294.109,45.526 C293.242,47.601 292.142,50.094 290.856,50.59 C290.562,50.698 290.268,50.698 289.973,50.265 C289.663,49.8 289.354,49.258 289.663,48.344 C290.128,46.95 291.444,46.021 292.977,45.417 C293.132,45.061 293.287,44.674 293.457,44.302 C292.977,44.797 292.388,45.2 291.769,45.154 C290.654,45.061 290.623,43.93 290.979,42.909 C291.32,41.918 292.079,40.384 293.085,38.99 C293.209,38.82 293.363,38.836 293.472,38.99 C293.844,39.486 293.751,40.136 293.178,41.05 C292.62,41.948 292.28,42.584 291.986,43.312 C291.676,44.071 291.708,44.613 292.063,44.644 C292.667,44.69 293.442,43.699 294.232,42.352 C294.898,41.206 295.563,39.812 296.106,39.022 C296.245,38.821 296.353,38.79 296.493,38.914 C296.71,39.192 296.834,39.858 296.431,40.648 C295.966,41.546 295.021,43.405 294.37,44.907 C295.578,44.257 296.492,43.374 297.111,42.522 C297.189,42.414 297.328,42.398 297.359,42.553 C297.39,42.693 297.343,43.048 297.081,43.451 C296.479,44.411 295.395,45 294.109,45.526 L294.109,45.526 Z M290.283,49.739 C290.485,50.033 291.755,48.344 292.715,46.068 C290.702,47.229 290.005,49.351 290.283,49.739 L290.283,49.739 Z" id="Shape"></path>
            <path d="M64.305,9.59 L71.605,9.59 C72.623,9.59 73.585,9.683 74.492,9.868 C75.399,10.053 76.19,10.372 76.866,10.826 C77.541,11.279 78.078,11.89 78.476,12.658 C78.874,13.426 79.073,14.393 79.073,15.559 C79.073,16.707 78.888,17.669 78.518,18.446 C78.148,19.223 77.639,19.843 76.991,20.306 C76.343,20.769 75.575,21.097 74.687,21.291 C73.798,21.485 72.836,21.582 71.8,21.582 L68.636,21.582 L68.636,29.244 L64.306,27.307 L64.306,9.59 L64.305,9.59 Z M68.635,17.918 L71.522,17.918 C71.911,17.918 72.285,17.881 72.646,17.807 C73.007,17.733 73.33,17.608 73.617,17.432 C73.904,17.257 74.135,17.016 74.311,16.711 C74.487,16.405 74.575,16.021 74.575,15.559 C74.575,15.06 74.459,14.657 74.228,14.352 C73.997,14.046 73.701,13.81 73.34,13.644 C72.979,13.478 72.577,13.371 72.133,13.325 C71.689,13.279 71.263,13.256 70.856,13.256 L68.635,13.256 L68.635,17.918 L68.635,17.918 Z" id="Shape"></path>
            <path d="M94.535,9.59 L98.116,9.59 L106.666,29.244 L101.781,29.244 L100.088,25.08 L92.454,25.08 L90.816,29.244 L86.041,29.244 L94.535,9.59 L94.535,9.59 Z M96.2,15.309 L93.813,21.416 L98.615,21.416 L96.2,15.309 L96.2,15.309 Z" id="Shape"></path>
            <path d="M126.679,14.393 C126.327,13.949 125.851,13.621 125.25,13.408 C124.648,13.196 124.079,13.088 123.543,13.088 C123.228,13.088 122.904,13.126 122.572,13.2 C122.239,13.274 121.924,13.39 121.628,13.547 C121.332,13.705 121.091,13.913 120.906,14.172 C120.721,14.431 120.628,14.746 120.628,15.116 C120.628,15.709 120.85,16.161 121.294,16.476 C121.738,16.791 122.298,17.059 122.973,17.281 C123.648,17.503 124.375,17.725 125.152,17.947 C125.929,18.169 126.656,18.484 127.331,18.891 C128.006,19.298 128.566,19.844 129.01,20.529 C129.454,21.214 129.676,22.13 129.676,23.277 C129.676,24.37 129.472,25.322 129.065,26.136 C128.657,26.951 128.107,27.626 127.413,28.163 C126.719,28.699 125.914,29.097 124.998,29.356 C124.082,29.615 123.115,29.745 122.097,29.745 C120.82,29.745 119.636,29.55 118.544,29.162 C117.452,28.773 116.434,28.144 115.491,27.275 L118.572,23.888 C119.016,24.481 119.576,24.938 120.251,25.262 C120.926,25.586 121.625,25.748 122.347,25.748 C122.698,25.748 123.055,25.706 123.416,25.623 C123.777,25.54 124.101,25.415 124.388,25.248 C124.675,25.082 124.906,24.869 125.082,24.61 C125.258,24.351 125.346,24.046 125.346,23.694 C125.346,23.101 125.119,22.635 124.666,22.292 C124.212,21.95 123.643,21.658 122.959,21.418 C122.274,21.178 121.534,20.937 120.738,20.696 C119.942,20.456 119.202,20.132 118.517,19.725 C117.832,19.318 117.263,18.781 116.81,18.115 C116.356,17.449 116.13,16.57 116.13,15.478 C116.13,14.423 116.338,13.498 116.754,12.702 C117.17,11.906 117.725,11.24 118.42,10.704 C119.114,10.168 119.914,9.765 120.821,9.496 C121.727,9.228 122.662,9.094 123.625,9.094 C124.735,9.094 125.808,9.252 126.845,9.566 C127.881,9.881 128.816,10.408 129.649,11.148 L126.679,14.393 L126.679,14.393 Z" id="Shape"></path>
            <path d="M150.94,14.393 C150.588,13.949 150.112,13.621 149.511,13.408 C148.909,13.196 148.34,13.088 147.804,13.088 C147.489,13.088 147.165,13.126 146.833,13.2 C146.5,13.274 146.185,13.39 145.889,13.547 C145.593,13.705 145.352,13.913 145.167,14.172 C144.982,14.431 144.889,14.746 144.889,15.116 C144.889,15.709 145.111,16.161 145.555,16.476 C145.999,16.791 146.559,17.059 147.234,17.281 C147.909,17.503 148.636,17.725 149.413,17.947 C150.19,18.169 150.917,18.484 151.592,18.891 C152.267,19.298 152.827,19.844 153.271,20.529 C153.715,21.214 153.937,22.13 153.937,23.277 C153.937,24.37 153.733,25.322 153.326,26.136 C152.918,26.951 152.368,27.626 151.674,28.163 C150.98,28.699 150.175,29.097 149.259,29.356 C148.343,29.615 147.376,29.745 146.358,29.745 C145.081,29.745 143.897,29.55 142.805,29.162 C141.713,28.773 140.695,28.144 139.752,27.275 L142.833,23.888 C143.277,24.481 143.837,24.938 144.512,25.262 C145.188,25.586 145.886,25.748 146.608,25.748 C146.959,25.748 147.316,25.706 147.677,25.623 C148.038,25.54 148.362,25.415 148.649,25.248 C148.936,25.082 149.167,24.869 149.343,24.61 C149.519,24.351 149.607,24.046 149.607,23.694 C149.607,23.101 149.38,22.635 148.927,22.292 C148.473,21.95 147.904,21.658 147.22,21.418 C146.535,21.178 145.795,20.937 144.999,20.696 C144.203,20.456 143.463,20.132 142.778,19.725 C142.093,19.318 141.524,18.781 141.071,18.115 C140.617,17.449 140.391,16.57 140.391,15.478 C140.391,14.423 140.599,13.498 141.015,12.702 C141.431,11.906 141.986,11.24 142.681,10.704 C143.375,10.168 144.175,9.765 145.082,9.496 C145.988,9.228 146.923,9.094 147.886,9.094 C148.996,9.094 150.069,9.252 151.106,9.566 C152.142,9.881 153.077,10.408 153.91,11.148 L150.94,14.393 L150.94,14.393 Z" id="Shape"></path>
            <path d="M165.486,9.59 L172.786,9.59 C173.804,9.59 174.766,9.683 175.673,9.868 C176.58,10.053 177.371,10.372 178.047,10.826 C178.722,11.279 179.259,11.89 179.657,12.658 C180.055,13.426 180.254,14.393 180.254,15.559 C180.254,16.707 180.069,17.669 179.699,18.446 C179.329,19.223 178.82,19.843 178.172,20.306 C177.524,20.769 176.756,21.097 175.868,21.291 C174.979,21.485 174.017,21.582 172.981,21.582 L169.817,21.582 L169.817,29.244 L165.487,27.307 L165.487,9.59 L165.486,9.59 Z M169.816,17.918 L172.703,17.918 C173.092,17.918 173.466,17.881 173.827,17.807 C174.188,17.733 174.511,17.608 174.798,17.432 C175.085,17.257 175.316,17.016 175.492,16.711 C175.668,16.405 175.756,16.021 175.756,15.559 C175.756,15.06 175.64,14.657 175.409,14.352 C175.178,14.046 174.882,13.81 174.521,13.644 C174.16,13.478 173.758,13.371 173.314,13.325 C172.87,13.279 172.444,13.256 172.037,13.256 L169.816,13.256 L169.816,17.918 L169.816,17.918 Z" id="Shape"></path>
            <path d="M190.247,19.417 C190.247,17.844 190.511,16.419 191.038,15.142 C191.565,13.865 192.301,12.778 193.245,11.88 C194.189,10.983 195.308,10.293 196.604,9.812 C197.899,9.331 199.315,9.09 200.851,9.09 C202.387,9.09 203.802,9.331 205.098,9.812 C206.393,10.293 207.513,10.983 208.457,11.88 C209.401,12.778 210.136,13.865 210.664,15.142 C211.191,16.419 211.455,17.844 211.455,19.417 C211.455,20.99 211.191,22.415 210.664,23.692 C210.137,24.969 209.401,26.056 208.457,26.953 C207.513,27.851 206.393,28.54 205.098,29.021 C203.802,29.502 202.387,29.743 200.851,29.743 C199.315,29.743 197.899,29.502 196.604,29.021 C195.308,28.54 194.189,27.851 193.245,26.953 C192.301,26.056 191.566,24.968 191.038,23.692 C190.51,22.415 190.247,20.99 190.247,19.417 L190.247,19.417 Z M194.744,19.417 C194.744,20.342 194.887,21.189 195.174,21.957 C195.461,22.725 195.872,23.391 196.409,23.955 C196.945,24.52 197.589,24.959 198.338,25.273 C199.088,25.588 199.924,25.745 200.85,25.745 C201.775,25.745 202.613,25.588 203.362,25.273 C204.112,24.959 204.754,24.52 205.291,23.955 C205.827,23.391 206.239,22.724 206.526,21.957 C206.813,21.189 206.956,20.342 206.956,19.417 C206.956,18.51 206.812,17.668 206.526,16.891 C206.239,16.114 205.827,15.443 205.291,14.878 C204.754,14.314 204.111,13.874 203.362,13.56 C202.613,13.245 201.775,13.088 200.85,13.088 C199.924,13.088 199.087,13.246 198.338,13.56 C197.588,13.875 196.945,14.314 196.409,14.878 C195.872,15.443 195.461,16.114 195.174,16.891 C194.887,17.668 194.744,18.511 194.744,19.417 L194.744,19.417 Z" id="Shape"></path>
            <path d="M222.724,9.59 L230.33,9.59 C231.329,9.59 232.277,9.687 233.175,9.882 C234.073,10.076 234.859,10.4 235.535,10.853 C236.21,11.306 236.747,11.917 237.145,12.685 C237.543,13.453 237.742,14.41 237.742,15.558 C237.742,16.946 237.381,18.126 236.659,19.097 C235.938,20.068 234.882,20.684 233.495,20.943 L238.491,29.243 L233.3,29.243 L229.192,21.387 L227.055,21.387 L227.055,29.243 L222.725,29.243 L222.725,9.59 L222.724,9.59 Z M227.055,17.724 L229.609,17.724 C229.998,17.724 230.41,17.71 230.845,17.682 C231.279,17.654 231.673,17.571 232.025,17.432 C232.376,17.293 232.668,17.076 232.899,16.78 C233.13,16.484 233.246,16.068 233.246,15.53 C233.246,15.031 233.144,14.633 232.941,14.337 C232.737,14.041 232.478,13.814 232.164,13.657 C231.849,13.5 231.488,13.393 231.082,13.338 C230.675,13.283 230.277,13.255 229.889,13.255 L227.057,13.255 L227.057,17.724 L227.055,17.724 Z" id="Shape"></path>
            <polygon id="Shape" points="252.343 13.421 246.735 13.421 246.735 9.59 262.28 9.59 262.28 13.421 256.673 13.421 256.673 29.243 252.343 29.243"></polygon>
            <polygon id="Shape" points="272.967 9.59 286.319 9.59 286.319 13.588 277.297 13.588 277.297 17.252 285.819 17.252 285.819 21.25 277.297 21.25 277.297 25.247 286.818 25.247 286.818 29.245 272.966 29.245 272.966 9.59"></polygon>
            <path d="M298.617,9.59 L305.113,9.59 C306.685,9.59 308.18,9.767 309.596,10.118 C311.012,10.47 312.247,11.039 313.302,11.825 C314.357,12.612 315.194,13.634 315.814,14.892 C316.434,16.151 316.744,17.678 316.744,19.473 C316.744,21.065 316.443,22.466 315.842,23.679 C315.241,24.891 314.43,25.909 313.413,26.732 C312.395,27.556 311.22,28.18 309.888,28.606 C308.556,29.032 307.158,29.245 305.696,29.245 L298.618,29.245 L298.618,9.59 L298.617,9.59 Z M302.947,25.246 L305.196,25.246 C306.195,25.246 307.125,25.144 307.986,24.941 C308.847,24.738 309.591,24.399 310.221,23.928 C310.85,23.456 311.345,22.836 311.706,22.068 C312.067,21.3 312.248,20.361 312.248,19.25 C312.248,18.288 312.068,17.451 311.706,16.738 C311.345,16.026 310.859,15.438 310.249,14.975 C309.638,14.512 308.921,14.166 308.097,13.934 C307.274,13.703 306.408,13.587 305.502,13.587 L302.948,13.587 L302.948,25.246 L302.947,25.246 Z" id="Shape"></path>
            <path d="M52.165,26.334 C52.165,12.188 40.698,0.721 26.552,0.721 C12.407,0.721 0.939,12.188 0.939,26.334 C0.939,40.479 12.406,51.947 26.552,51.947 C26.839,51.947 27.123,51.935 27.408,51.925 C25.829,46.315 23.167,33.373 26.586,18.124 C25.952,20.406 23.889,28.954 24.699,41.182 C23.672,39.111 22.238,35.526 21.487,30.551 L22.895,31.526 L21.406,29.993 C21.127,27.959 20.963,25.703 20.986,23.231 C21.01,20.699 21.177,18.557 21.475,16.75 L23.264,18.699 L21.626,15.923 C22.724,10.431 25.191,8.375 28.737,8.154 C32.996,7.888 32.943,11.728 30.191,24.013 L27.552,26.889 L29.967,25.007 C29.882,25.382 29.795,25.763 29.705,26.153 C27.652,37.386 26.689,41.304 26.246,42.64 C26.542,45.653 26.999,48.773 27.666,51.919 C41.294,51.334 52.165,40.106 52.165,26.334 L52.165,26.334 Z" id="Shape"></path>
        </g>
    </g>
</svg>