<?xml version="1.0" encoding="UTF-8" standalone="no"?>
<svg width="34px" height="43px" viewBox="0 0 34 43" version="1.1" xmlns="http://www.w3.org/2000/svg" xmlns:xlink="http://www.w3.org/1999/xlink" xmlns:sketch="http://www.bohemiancoding.com/sketch/ns">
    <!-- Generator: Sketch 3.3.2 (12043) - http://www.bohemiancoding.com/sketch -->
    <title>destination-pin-icon</title>
    <desc>Created with Sketch.</desc>
    <defs></defs>
    <g id="Page-1" stroke="none" stroke-width="1" fill="none" fill-rule="evenodd" sketch:type="MSPage">
        <g id="Rectangle-1-+-Star-1" sketch:type="MSLayerGroup" transform="translate(-50.000000, 0.000000)" fill="#FFFFFF">
            <path d="M73.1584404,32.8502033 C79.5030533,30.3833074 84,24.2168128 84,17 C84,7.61115925 76.3888407,0 67,0 C57.6111593,0 50,7.61115925 50,17 C50,24.3133174 54.618019,30.5480387 61.0970687,32.9471758 L67.5351562,42.416748 L73.1584404,32.8502033 Z M67,29.3103448 C73.7988157,29.3103448 79.3103448,23.7988157 79.3103448,17 C79.3103448,10.2011843 73.7988157,4.68965517 67,4.68965517 C60.2011843,4.68965517 54.6896552,10.2011843 54.6896552,17 C54.6896552,23.7988157 60.2011843,29.3103448 67,29.3103448 Z" id="Oval-1" sketch:type="MSShapeGroup"></path>
        </g>
    </g>
</svg>