<?xml version="1.0" encoding="UTF-8" standalone="no"?>
<svg width="39px" height="39px" viewBox="0 0 39 39" version="1.1" xmlns="http://www.w3.org/2000/svg" xmlns:xlink="http://www.w3.org/1999/xlink" xmlns:sketch="http://www.bohemiancoding.com/sketch/ns">
    <!-- Generator: Sketch 3.3.2 (12043) - http://www.bohemiancoding.com/sketch -->
    <title>Slice 1</title>
    <desc>Created with Sketch.</desc>
    <defs></defs>
    <g id="Page-1" stroke="none" stroke-width="1" fill="none" fill-rule="evenodd" sketch:type="MSPage">
        <g id="map-pin-icon" sketch:type="MSLayerGroup">
            <g id="Page-1" sketch:type="MSShapeGroup">
                <g id="map-pin-icon">
                    <g id="Page-1" fill="#7795A0">
                        <ellipse id="Oval-1" cx="20" cy="21.5" rx="9" ry="17.5"></ellipse>
                        <path d="M38.7096774,19.6451613 C38.7096774,8.95591191 30.0440881,0.290322581 19.3548387,0.290322581 C8.66558933,0.290322581 0,8.95591191 0,19.6451613 C0,30.2645905 8.55353915,38.8828822 19.1465043,38.9949324 C17.9533668,34.7612374 15.9364636,24.9745832 18.5220637,13.4407345 C18.0428943,15.1654063 16.4843271,21.6243391 17.095817,30.8648191 C16.3199117,29.3000579 15.2360092,26.5905832 14.6690015,22.8309901 L15.7326337,23.5680437 L14.6076274,22.4086903 C14.3964774,20.8720826 14.2726028,19.1676812 14.2900579,17.2999905 C14.308076,15.3866914 14.4342028,13.767876 14.6594294,12.4024403 L16.0113514,13.8748586 L14.7737319,11.7774368 C15.6031284,7.6270756 17.4674406,6.07357587 20.1470729,5.90634519 C23.3661226,5.70533054 23.3261449,8.60737391 21.2461782,17.890647 L19.2523606,20.0640826 L21.0772583,18.6417773 C21.0125057,18.9255626 20.9471901,19.2127265 20.879059,19.5077732 C19.3278115,27.9965596 18.5997668,30.9571619 18.2647425,31.9667397 C18.4888428,34.2499733 18.8351285,36.6148515 19.3418881,38.9994369 C19.3463928,38.9994369 19.3503342,39 19.3548387,39 C30.0440881,39 38.7096774,30.3344107 38.7096774,19.6451613" id="Shape"></path>
                    </g>
                    <g id="Imported-Layers-Copy" transform="translate(9.000000, 9.000000)" fill="#FFFFFF">
                        <path d="M17.1260606,9.74606061 L14.7363636,8.95939394 C14.889697,8.65393939 15.0333333,8.35212121 15.1612121,8.0630303 C15.5248485,7.31212121 15.7090909,6.51515152 15.7090909,5.69575758 C15.7090909,2.65515152 13.1921212,0.181818182 10.0981818,0.181818182 C7.00424242,0.181818182 4.48727273,2.65515152 4.48727273,5.69575758 C4.48727273,6.52787879 4.66606061,7.31878788 5.0169697,8.04181818 C5.14727273,8.33575758 5.29393939,8.64484848 5.45393939,8.96181818 L3.06969697,9.74606061 L0.434545455,19.410303 L5.4830303,17.110303 L10.0981818,19.2369697 L14.7127273,17.110303 L19.7606061,19.410303 L17.1260606,9.74606061 L17.1260606,9.74606061 Z M14.0460606,7.55090909 L14.0460606,7.55030303 L14.0460606,7.55090909 L14.0460606,7.55090909 Z M13.9127273,7.47757576 L13.9072727,7.48909091 C12.8078788,9.97818182 10.9581818,12.4727273 10.0975758,13.569697 C9.23575758,12.4745455 7.38121212,9.98121212 6.27090909,7.46666667 C6.0030303,6.91515152 5.86727273,6.31939394 5.86727273,5.69575758 C5.86727273,3.41212121 7.76484848,1.55393939 10.0981818,1.55393939 C12.4309091,1.55393939 14.3290909,3.41212121 14.3290909,5.69575758 C14.3290909,6.30727273 14.1890909,6.90666667 13.9127273,7.47757576 L13.9127273,7.47757576 Z M6.12060606,10.1878788 C7.65939394,12.8466667 9.5569697,15.0890909 9.57272727,15.1078788 L10.0993939,15.7224242 L10.6278788,15.1030303 C10.8254545,14.8690909 12.58,12.7678788 14.0709091,10.1860606 L15.9878788,10.8163636 L17.6587879,16.9430303 L14.7090909,15.5993939 L10.0981818,17.7236364 L5.48606061,15.5993939 L2.53757576,16.9430303 L4.20787879,10.8163636 L6.12060606,10.1878788 L6.12060606,10.1878788 Z" id="Fill-1"></path>
                        <path d="M10.0981818,2.82666667 C8.53030303,2.82666667 7.25515152,4.08787879 7.25515152,5.63818182 C7.25515152,7.18848485 8.53030303,8.45030303 10.0981818,8.45030303 C11.6654545,8.45030303 12.9412121,7.18848485 12.9412121,5.63818182 C12.9412121,4.08787879 11.6654545,2.82666667 10.0981818,2.82666667 L10.0981818,2.82666667 Z M11.5606061,5.63818182 C11.5606061,6.43212121 10.9048485,7.07757576 10.0981818,7.07757576 C9.29151515,7.07757576 8.63515152,6.43212121 8.63515152,5.63818182 C8.63515152,4.84484848 9.29151515,4.19878788 10.0981818,4.19878788 C10.9048485,4.19878788 11.5606061,4.84484848 11.5606061,5.63818182 L11.5606061,5.63818182 Z" id="Fill-2"></path>
                    </g>
                </g>
            </g>
        </g>
    </g>
</svg>