<?xml version="1.0" encoding="UTF-8" standalone="no"?>
<svg width="39px" height="39px" viewBox="0 0 39 39" version="1.1" xmlns="http://www.w3.org/2000/svg" xmlns:xlink="http://www.w3.org/1999/xlink" xmlns:sketch="http://www.bohemiancoding.com/sketch/ns">
    <!-- Generator: Sketch 3.3.2 (12043) - http://www.bohemiancoding.com/sketch -->
    <title>Slice 1</title>
    <desc>Created with Sketch.</desc>
    <defs></defs>
    <g id="Page-1" stroke="none" stroke-width="1" fill="none" fill-rule="evenodd" sketch:type="MSPage">
        <g id="map-pin-icon" sketch:type="MSLayerGroup">
            <g id="Page-1" fill="#7795A0" sketch:type="MSShapeGroup">
                <g id="map-pin-icon">
                    <g id="Page-1">
                        <ellipse id="Oval-1" cx="20" cy="21.5" rx="9" ry="17.5"></ellipse>
                        <path d="M38.7096774,19.6451613 C38.7096774,8.95591191 30.0440881,0.290322581 19.3548387,0.290322581 C8.66558933,0.290322581 0,8.95591191 0,19.6451613 C0,30.2645905 8.55353915,38.8828822 19.1465043,38.9949324 C17.9533668,34.7612374 15.9364636,24.9745832 18.5220637,13.4407345 C18.0428943,15.1654063 16.4843271,21.6243391 17.095817,30.8648191 C16.3199117,29.3000579 15.2360092,26.5905832 14.6690015,22.8309901 L15.7326337,23.5680437 L14.6076274,22.4086903 C14.3964774,20.8720826 14.2726028,19.1676812 14.2900579,17.2999905 C14.308076,15.3866914 14.4342028,13.767876 14.6594294,12.4024403 L16.0113514,13.8748586 L14.7737319,11.7774368 C15.6031284,7.6270756 17.4674406,6.07357587 20.1470729,5.90634519 C23.3661226,5.70533054 23.3261449,8.60737391 21.2461782,17.890647 L19.2523606,20.0640826 L21.0772583,18.6417773 C21.0125057,18.9255626 20.9471901,19.2127265 20.879059,19.5077732 C19.3278115,27.9965596 18.5997668,30.9571619 18.2647425,31.9667397 C18.4888428,34.2499733 18.8351285,36.6148515 19.3418881,38.9994369 C19.3463928,38.9994369 19.3503342,39 19.3548387,39 C30.0440881,39 38.7096774,30.3344107 38.7096774,19.6451613" id="Shape"></path>
                    </g>
                </g>
            </g>
            <g id="Imported-Layers-Copy" transform="translate(7.000000, 8.000000)" fill="#FFFFFF" sketch:type="MSShapeGroup">
                <path d="M7.71250965,7.11207435 C6.73312374,7.11207435 5.93567909,7.90719635 5.93567909,8.88503382 C5.93567909,9.86287129 6.73312374,10.6579933 7.71250965,10.6579933 C8.69266978,10.6579933 9.49011443,9.86287129 9.49011443,8.88503382 C9.49011443,7.90719635 8.69266978,7.11207435 7.71250965,7.11207435" id="Fill-1"></path>
                <path d="M12.2920098,7.11207435 C11.3118496,7.11207435 10.514405,7.90719635 10.514405,8.88503382 C10.514405,9.86287129 11.3118496,10.6579933 12.2920098,10.6579933 C13.2721699,10.6579933 14.0696146,9.86287129 14.0696146,8.88503382 C14.0696146,7.90719635 13.2721699,7.11207435 12.2920098,7.11207435" id="Fill-2"></path>
                <path d="M21.2916361,0.0573989345 L2.9317132,0.0573989345 C1.48902587,0.0573989345 0.315629834,1.22769075 0.315629834,2.6664978 L0.315629834,15.1454715 C0.315629834,16.5835025 1.48902587,17.7545704 2.9317132,17.7545704 L3.60688155,17.7545704 L1.58680888,24.2998232 L10.3399398,17.7545704 L21.2916361,17.7545704 C22.7343235,17.7545704 23.9069434,16.5835025 23.9069434,15.1454715 L23.9069434,2.6664978 C23.9069434,1.22769075 22.7343235,0.0573989345 21.2916361,0.0573989345 L21.2916361,0.0573989345 Z M5.11165333,19.3012492 L6.1725213,15.863323 L2.9317132,15.863323 C2.53282063,15.863323 2.20920545,15.5412599 2.20920545,15.1454715 L2.20920545,2.6664978 C2.20920545,2.27070945 2.53282063,1.94787033 2.9317132,1.94787033 L21.2916361,1.94787033 C21.6897526,1.94787033 22.0141439,2.27070945 22.0141439,2.6664978 L22.0141439,15.1454715 C22.0141439,15.5412599 21.6897526,15.863323 21.2916361,15.863323 L9.7105587,15.863323 L5.11165333,19.3012492 L5.11165333,19.3012492 Z" id="Fill-3"></path>
                <path d="M16.8707357,7.11207435 C15.8905755,7.11207435 15.0939051,7.90719635 15.0939051,8.88503382 C15.0939051,9.86287129 15.8905755,10.6579933 16.8707357,10.6579933 C17.8501216,10.6579933 18.6483405,9.86287129 18.6483405,8.88503382 C18.6483405,7.90719635 17.8501216,7.11207435 16.8707357,7.11207435" id="Fill-4"></path>
            </g>
        </g>
    </g>
</svg>