<?xml version="1.0" encoding="UTF-8" standalone="no"?>
<svg width="39px" height="39px" viewBox="0 0 39 39" version="1.1" xmlns="http://www.w3.org/2000/svg" xmlns:xlink="http://www.w3.org/1999/xlink" xmlns:sketch="http://www.bohemiancoding.com/sketch/ns">
    <!-- Generator: Sketch 3.3.2 (12043) - http://www.bohemiancoding.com/sketch -->
    <title>Slice 1</title>
    <desc>Created with Sketch.</desc>
    <defs></defs>
    <g id="Page-1" stroke="none" stroke-width="1" fill="none" fill-rule="evenodd" sketch:type="MSPage">
        <g id="map-pin-icon" sketch:type="MSLayerGroup">
            <g id="Page-1" sketch:type="MSShapeGroup">
                <g id="map-pin-icon">
                    <g id="Page-1">
                        <ellipse id="Oval-1" fill="#7795A0" cx="20" cy="21.5" rx="9" ry="17.5"></ellipse>
                        <path d="M38.7096774,19.6451613 C38.7096774,8.95591191 30.0440881,0.290322581 19.3548387,0.290322581 C8.66558933,0.290322581 0,8.95591191 0,19.6451613 C0,30.2645905 8.55353915,38.8828822 19.1465043,38.9949324 C17.9533668,34.7612374 15.9364636,24.9745832 18.5220637,13.4407345 C18.0428943,15.1654063 16.4843271,21.6243391 17.095817,30.8648191 C16.3199117,29.3000579 15.2360092,26.5905832 14.6690015,22.8309901 L15.7326337,23.5680437 L14.6076274,22.4086903 C14.3964774,20.8720826 14.2726028,19.1676812 14.2900579,17.2999905 C14.308076,15.3866914 14.4342028,13.767876 14.6594294,12.4024403 L16.0113514,13.8748586 L14.7737319,11.7774368 C15.6031284,7.6270756 17.4674406,6.07357587 20.1470729,5.90634519 C23.3661226,5.70533054 23.3261449,8.60737391 21.2461782,17.890647 L19.2523606,20.0640826 L21.0772583,18.6417773 C21.0125057,18.9255626 20.9471901,19.2127265 20.879059,19.5077732 C19.3278115,27.9965596 18.5997668,30.9571619 18.2647425,31.9667397 C18.4888428,34.2499733 18.8351285,36.6148515 19.3418881,38.9994369 C19.3463928,38.9994369 19.3503342,39 19.3548387,39 C30.0440881,39 38.7096774,30.3344107 38.7096774,19.6451613" id="Shape" fill="#7795A0"></path>
                        <g id="Imported-Layers-Copy" transform="translate(7.000000, 8.000000)" fill="#FFFFFF">
                            <path d="M15.0659881,6.30695713 C15.527443,6.30695713 15.902521,5.93187913 15.902521,5.47042425 L15.902521,3.9638869 C15.902521,3.50321019 15.527443,3.12813219 15.0659881,3.12813219 C14.6045333,3.12813219 14.2302334,3.50321019 14.2302334,3.9638869 L14.2302334,5.47042425 C14.2302334,5.93187913 14.6045333,6.30695713 15.0659881,6.30695713" id="Fill-1"></path>
                            <path d="M12.4264351,6.30695713 C12.88789,6.30695713 13.262968,5.93187913 13.262968,5.47042425 L13.262968,1.3282247 C13.262968,0.866769822 12.88789,0.492469994 12.4264351,0.492469994 C11.9649802,0.492469994 11.5899022,0.866769822 11.5899022,1.3282247 L11.5899022,5.47042425 C11.5899022,5.93187913 11.9649802,6.30695713 12.4264351,6.30695713" id="Fill-2"></path>
                            <path d="M9.78610387,6.30695713 C10.2475588,6.30695713 10.6226367,5.93187913 10.6226367,5.47042425 L10.6226367,2.83476206 C10.6226367,2.37330717 10.2475588,1.99822918 9.78610387,1.99822918 C9.32464899,1.99822918 8.94957099,2.37330717 8.94957099,2.83476206 L8.94957099,5.47042425 C8.94957099,5.93187913 9.32464899,6.30695713 9.78610387,6.30695713" id="Fill-3"></path>
                            <path d="M24.2168299,15.9313652 L23.052433,15.9313652 C22.3422832,10.9619708 18.0844952,7.09290895 13.2845665,7.09290895 L12.1536158,7.09290895 C7.35446497,7.09290895 3.09667697,10.9619708 2.38652709,15.9313652 L0.844887379,15.9313652 C0.383639977,15.9313652 0.00873062157,16.3064432 0.00873062157,16.7671199 C0.00873062157,17.2277966 0.383639977,17.6036528 0.844887379,17.6036528 L24.2168299,17.6036528 C24.6780773,17.6036528 25.0522089,17.2277966 25.0522089,16.7671199 C25.0522089,16.3064432 24.6780773,15.9313652 24.2168299,15.9313652 L24.2168299,15.9313652 Z M4.10939893,15.9313652 C4.83199393,12.4755117 8.05061408,8.83678819 12.1536158,8.83678819 L13.2845665,8.83678819 C17.453683,8.83678819 20.6668584,12.4762898 21.3474511,15.9313652 L4.10939893,15.9313652 L4.10939893,15.9313652 Z" id="Fill-4"></path>
                        </g>
                    </g>
                </g>
            </g>
        </g>
    </g>
</svg>