<?xml version="1.0" encoding="UTF-8" standalone="no"?>
<svg width="43px" height="30px" viewBox="0 0 43 30" version="1.1" xmlns="http://www.w3.org/2000/svg" xmlns:xlink="http://www.w3.org/1999/xlink" xmlns:sketch="http://www.bohemiancoding.com/sketch/ns">
    <!-- Generator: Sketch 3.3.3 (12072) - http://www.bohemiancoding.com/sketch -->
    <title>Slice 1</title>
    <desc>Created with Sketch.</desc>
    <defs></defs>
    <g id="Page-1" stroke="none" stroke-width="1" fill="none" fill-rule="evenodd" sketch:type="MSPage">
        <path d="M2.14285714,17.1428571 L40.7142857,17.1428571 C41.8971429,17.1428571 42.8571429,16.1828571 42.8571429,15 C42.8571429,13.8171429 41.8971429,12.8571429 40.7142857,12.8571429 L2.14285714,12.8571429 C0.96,12.8571429 0,13.8171429 0,15 C0,16.1828571 0.96,17.1428571 2.14285714,17.1428571 L2.14285714,17.1428571 Z M2.14285714,4.28571429 L40.7142857,4.28571429 C41.8971429,4.28571429 42.8571429,3.32571429 42.8571429,2.14285714 C42.8571429,0.96 41.8971429,0 40.7142857,0 L2.14285714,0 C0.96,0 0,0.96 0,2.14285714 C0,3.32571429 0.96,4.28571429 2.14285714,4.28571429 L2.14285714,4.28571429 Z M2.14285714,30 L40.7142857,30 C41.8971429,30 42.8571429,29.04 42.8571429,27.8571429 C42.8571429,26.6742857 41.8971429,25.7142857 40.7142857,25.7142857 L2.14285714,25.7142857 C0.96,25.7142857 0,26.6742857 0,27.8571429 C0,29.04 0.96,30 2.14285714,30 L2.14285714,30 Z" id="Shape" fill="#FFFFFF" sketch:type="MSShapeGroup"></path>
    </g>
</svg>