<?xml version="1.0" encoding="UTF-8" standalone="no"?>
<svg width="24px" height="14px" viewBox="0 0 24 14" version="1.1" xmlns="http://www.w3.org/2000/svg" xmlns:xlink="http://www.w3.org/1999/xlink">
    <!-- Generator: Sketch 3.8.1 (29687) - http://www.bohemiancoding.com/sketch -->
    <title>Shape</title>
    <desc>Created with Sketch.</desc>
    <defs></defs>
    <g id="Page-1" stroke="none" stroke-width="1" fill="none" fill-rule="evenodd">
        <path d="M0,7 C0,7.552 0.448,8 1,8 L20.586,8 L16.294,12.292 C15.904,12.682 15.904,13.316 16.294,13.706 C16.684,14.096 17.318,14.096 17.708,13.706 L23.708,7.706 C23.8,7.614 23.874,7.504 23.924,7.382 C23.972,7.26 24,7.132 24,7.004 L24,7 L24,7 C24,6.87 23.974,6.74 23.922,6.618 C23.872,6.496 23.798,6.386 23.706,6.294 L17.706,0.294 C17.316,-0.096 16.682,-0.096 16.292,0.294 C15.902,0.684 15.902,1.318 16.292,1.708 L20.586,6 L1,6 C0.448,6 0,6.448 0,7 L0,7 Z" id="Shape" fill="#FFFFFF"></path>
    </g>
</svg>