<?xml version="1.0" encoding="UTF-8" standalone="no"?>
<svg width="57px" height="56px" viewBox="0 0 57 56" version="1.1" xmlns="http://www.w3.org/2000/svg" xmlns:xlink="http://www.w3.org/1999/xlink">
    <!-- Generator: Sketch 3.8.1 (29687) - http://www.bohemiancoding.com/sketch -->
    <title>Shape</title>
    <desc>Created with Sketch.</desc>
    <defs></defs>
    <g id="Page-1" stroke="none" stroke-width="1" fill="none" fill-rule="evenodd">
        <g id="icons2-copy" transform="translate(-102.000000, -20.000000)" fill="#FFFFFF">
            <path d="M107.19,75.386 L111.536,61.349 L108.081,61.349 C105.228,61.349 102.907,59.041 102.907,56.205 L102.907,25.342 C102.907,22.507 105.228,20.199 108.081,20.199 L153.612,20.199 C156.465,20.199 158.786,22.507 158.786,25.342 L158.786,56.205 C158.786,59.041 156.465,61.349 153.612,61.349 L126.017,61.349 L107.19,75.386 L107.19,75.386 Z M108.08,22.256 C106.368,22.256 104.976,23.641 104.976,25.342 L104.976,56.205 C104.976,57.906 106.369,59.291 108.08,59.291 L114.337,59.291 L111.04,69.943 L125.327,59.291 L153.611,59.291 C155.323,59.291 156.715,57.906 156.715,56.205 L156.715,25.342 C156.715,23.641 155.322,22.256 153.611,22.256 L108.08,22.256 L108.08,22.256 Z" id="Shape"></path>
        </g>
    </g>
</svg>