<?xml version="1.0" encoding="UTF-8" standalone="no"?>
<svg width="23px" height="86px" viewBox="0 0 23 86" version="1.1" xmlns="http://www.w3.org/2000/svg" xmlns:xlink="http://www.w3.org/1999/xlink" xmlns:sketch="http://www.bohemiancoding.com/sketch/ns">
    <!-- Generator: Sketch 3.3.2 (12043) - http://www.bohemiancoding.com/sketch -->
    <title>Slice 1</title>
    <desc>Created with Sketch.</desc>
    <defs></defs>
    <g id="Page-1" stroke="none" stroke-width="1" fill="none" fill-rule="evenodd" sketch:type="MSPage">
        <path d="M-21.3549973,0.645002691 C-30.4033921,9.69339753 -36,22.1935794 -36,36.0007273 C-36,63.4346517 -13.9030358,85.698896 13.462522,85.9883631 C10.3802057,75.0511586 5.1697965,49.7686008 11.8493607,19.9723915 C10.6114885,24.4278587 6.58513099,41.1136777 8.16483628,64.9852648 C6.16038518,60.9429066 3.36026299,53.9433284 1.8954718,44.2309046 L4.64322807,46.1349877 L1.73691943,43.1399479 C1.19144108,39.1703202 0.871427117,34.7672189 0.916519994,29.9422811 C0.963067479,24.99952 1.28889988,20.8175193 1.87074345,17.2900927 L5.36325949,21.093895 L2.16602906,15.6754767 C4.30866801,4.95355434 9.12487818,0.940288303 16.0473621,0.508269452 C24.3633613,-0.0110259357 24.2600841,7.48602848 18.8867587,31.4681659 L13.7359885,37.0829563 L18.450376,33.4086142 C18.283096,34.1417371 18.1143614,34.8835876 17.9383537,35.6458027 C13.9309061,57.5754869 12.0500967,65.2238207 11.1846044,67.8319345 C11.7635388,73.7303737 12.6581233,79.8397312 13.9672713,86 C31.0781749,86.0009002 46.1738654,77.4266978 55.1948406,64.3451701 C46.1769916,77.4261083 31.0897657,86 14,86 C-13.6142375,86 -36,63.6142375 -36,36 C-36,22.1928813 -30.4035594,9.69288126 -21.3553391,0.644660941 Z" id="Shape" fill="#000000" sketch:type="MSShapeGroup"></path>
    </g>
</svg>