<?xml version="1.0" encoding="UTF-8" standalone="no"?>
<svg width="39px" height="39px" viewBox="0 0 39 39" version="1.1" xmlns="http://www.w3.org/2000/svg" xmlns:xlink="http://www.w3.org/1999/xlink" xmlns:sketch="http://www.bohemiancoding.com/sketch/ns">
    <!-- Generator: Sketch 3.3.2 (12043) - http://www.bohemiancoding.com/sketch -->
    <title>Slice 1</title>
    <desc>Created with Sketch.</desc>
    <defs></defs>
    <g id="Page-1" stroke="none" stroke-width="1" fill="none" fill-rule="evenodd" sketch:type="MSPage">
        <g id="map-pin-icon" sketch:type="MSLayerGroup">
            <g id="Page-1" fill="#7795A0" sketch:type="MSShapeGroup">
                <g id="map-pin-icon">
                    <g id="Page-1">
                        <ellipse id="Oval-1" cx="20" cy="21.5" rx="9" ry="17.5"></ellipse>
                        <path d="M38.7096774,19.6451613 C38.7096774,8.95591191 30.0440881,0.290322581 19.3548387,0.290322581 C8.66558933,0.290322581 0,8.95591191 0,19.6451613 C0,30.2645905 8.55353915,38.8828822 19.1465043,38.9949324 C17.9533668,34.7612374 15.9364636,24.9745832 18.5220637,13.4407345 C18.0428943,15.1654063 16.4843271,21.6243391 17.095817,30.8648191 C16.3199117,29.3000579 15.2360092,26.5905832 14.6690015,22.8309901 L15.7326337,23.5680437 L14.6076274,22.4086903 C14.3964774,20.8720826 14.2726028,19.1676812 14.2900579,17.2999905 C14.308076,15.3866914 14.4342028,13.767876 14.6594294,12.4024403 L16.0113514,13.8748586 L14.7737319,11.7774368 C15.6031284,7.6270756 17.4674406,6.07357587 20.1470729,5.90634519 C23.3661226,5.70533054 23.3261449,8.60737391 21.2461782,17.890647 L19.2523606,20.0640826 L21.0772583,18.6417773 C21.0125057,18.9255626 20.9471901,19.2127265 20.879059,19.5077732 C19.3278115,27.9965596 18.5997668,30.9571619 18.2647425,31.9667397 C18.4888428,34.2499733 18.8351285,36.6148515 19.3418881,38.9994369 C19.3463928,38.9994369 19.3503342,39 19.3548387,39 C30.0440881,39 38.7096774,30.3344107 38.7096774,19.6451613" id="Shape"></path>
                    </g>
                </g>
            </g>
            <path d="M28.1333388,12.2164816 L24.679924,12.2164816 L24.679924,10.2058977 C24.679924,8.98959022 23.7081972,8 22.5132254,8 L16.3342353,8 C15.1392636,8 14.1675368,8.98959022 14.1675368,10.2058977 L14.1675368,12.2164816 L10.714122,12.2164816 C8.66592668,12.2164816 7,13.9137973 7,16.0002089 L7,26.2162727 C7,28.3026843 8.66592668,30 10.714122,30 L28.1333388,30 C30.1807696,30 31.8474608,28.3026843 31.8474608,26.2162727 L31.8474608,16.0002089 C31.8474608,13.9137973 30.1807696,12.2164816 28.1333388,12.2164816 L28.1333388,12.2164816 Z M15.9338857,12.2164816 L15.9338857,10.2058977 C15.9338857,9.96922327 16.1215402,9.77697316 16.3513212,9.77697316 L22.5416217,9.77697316 C22.7721686,9.77697316 22.9598231,9.96922327 22.9598231,10.2058977 L22.9598231,12.2164816 L15.9338857,12.2164816 L15.9338857,12.2164816 Z M12.7131219,13.9942207 L26.1782892,13.9942207 L26.1782892,28.2222609 L12.7131219,28.2222609 L12.7131219,13.9942207 Z M30.1397138,16.0002089 L30.1397138,26.2162727 C30.1397138,27.3230512 29.2573547,28.2222609 28.1720224,28.2222609 L27.9315183,28.2222609 L27.9315183,13.9942207 L28.1720224,13.9942207 C29.2573547,13.9942207 30.1397138,14.8941963 30.1397138,16.0002089 L30.1397138,16.0002089 Z M8.75322912,16.0002089 C8.75322912,14.8941963 9.6355882,13.9942207 10.7209205,13.9942207 L10.9606587,13.9942207 L10.9606587,28.2222609 L10.7209205,28.2222609 C9.6355882,28.2222609 8.75322912,27.3230512 8.75322912,26.2162727 L8.75322912,16.0002089 L8.75322912,16.0002089 Z" id="Imported-Layers" fill="#FFFFFF" sketch:type="MSShapeGroup"></path>
        </g>
    </g>
</svg>