<?xml version="1.0" encoding="UTF-8" standalone="no"?>
<svg width="63px" height="65px" viewBox="0 0 63 65" version="1.1" xmlns="http://www.w3.org/2000/svg" xmlns:xlink="http://www.w3.org/1999/xlink">
    <!-- Generator: Sketch 3.8.1 (29687) - http://www.bohemiancoding.com/sketch -->
    <title>Shape</title>
    <desc>Created with Sketch.</desc>
    <defs></defs>
    <g id="Page-1" stroke="none" stroke-width="1" fill="none" fill-rule="evenodd">
        <g id="icons2-copy" fill="#FFFFFF">
            <path d="M40.024,18.458 C40.024,13.824 36.208,10.054 31.518,10.054 C26.828,10.054 23.012,13.824 23.012,18.458 C23.012,23.092 26.828,26.863 31.518,26.863 C36.208,26.863 40.024,23.093 40.024,18.458 L40.024,18.458 Z M25.139,18.458 C25.139,14.982 28,12.155 31.518,12.155 C35.036,12.155 37.897,14.982 37.897,18.458 C37.897,21.934 35.035,24.762 31.518,24.762 C28,24.763 25.139,21.935 25.139,18.458 L25.139,18.458 Z M54.724,33.705 L45.664,30.72 C46.439,29.255 47.171,27.765 47.831,26.27 C49,23.856 49.593,21.293 49.593,18.657 C49.593,8.869 41.485,0.905 31.519,0.905 C21.552,0.905 13.443,8.869 13.443,18.657 C13.443,21.334 14.028,23.897 15.163,26.237 C15.829,27.745 16.568,29.249 17.351,30.727 L8.312,33.704 L0.13,63.732 L15.567,56.692 L31.517,64.047 L47.467,56.692 L62.904,63.732 L54.724,33.705 L54.724,33.705 Z M17.097,25.363 C16.084,23.273 15.57,21.017 15.57,18.657 C15.57,10.027 22.725,3.005 31.519,3.005 C40.312,3.005 47.466,10.027 47.466,18.657 C47.466,20.978 46.943,23.235 45.896,25.397 C41.544,35.251 33.995,44.961 31.518,48.019 C29.035,44.962 21.461,35.247 17.097,25.363 L17.097,25.363 Z M47.464,54.376 L31.518,61.728 L15.572,54.376 L3.366,59.943 L10.069,35.34 L18.379,32.603 C23.785,42.212 30.623,50.261 30.707,50.359 L31.52,51.311 L32.332,50.358 C32.416,50.261 39.244,42.197 44.637,32.596 L52.967,35.339 L59.67,59.942 L47.464,54.376 L47.464,54.376 Z" id="Shape"></path>
        </g>
    </g>
</svg>