<?xml version="1.0" encoding="UTF-8" standalone="no"?>
<svg width="39px" height="39px" viewBox="0 0 39 39" version="1.1" xmlns="http://www.w3.org/2000/svg" xmlns:xlink="http://www.w3.org/1999/xlink" xmlns:sketch="http://www.bohemiancoding.com/sketch/ns">
    <!-- Generator: Sketch 3.3.2 (12043) - http://www.bohemiancoding.com/sketch -->
    <title>Slice 1</title>
    <desc>Created with Sketch.</desc>
    <defs></defs>
    <g id="Page-1" stroke="none" stroke-width="1" fill="none" fill-rule="evenodd" sketch:type="MSPage">
        <g id="map-pin-icon" sketch:type="MSLayerGroup">
            <g id="Page-1" fill="#7795A0" sketch:type="MSShapeGroup">
                <g id="map-pin-icon">
                    <g id="Page-1">
                        <ellipse id="Oval-1" cx="20" cy="21.5" rx="9" ry="17.5"></ellipse>
                        <path d="M38.7096774,19.6451613 C38.7096774,8.95591191 30.0440881,0.290322581 19.3548387,0.290322581 C8.66558933,0.290322581 0,8.95591191 0,19.6451613 C0,30.2645905 8.55353915,38.8828822 19.1465043,38.9949324 C17.9533668,34.7612374 15.9364636,24.9745832 18.5220637,13.4407345 C18.0428943,15.1654063 16.4843271,21.6243391 17.095817,30.8648191 C16.3199117,29.3000579 15.2360092,26.5905832 14.6690015,22.8309901 L15.7326337,23.5680437 L14.6076274,22.4086903 C14.3964774,20.8720826 14.2726028,19.1676812 14.2900579,17.2999905 C14.308076,15.3866914 14.4342028,13.767876 14.6594294,12.4024403 L16.0113514,13.8748586 L14.7737319,11.7774368 C15.6031284,7.6270756 17.4674406,6.07357587 20.1470729,5.90634519 C23.3661226,5.70533054 23.3261449,8.60737391 21.2461782,17.890647 L19.2523606,20.0640826 L21.0772583,18.6417773 C21.0125057,18.9255626 20.9471901,19.2127265 20.879059,19.5077732 C19.3278115,27.9965596 18.5997668,30.9571619 18.2647425,31.9667397 C18.4888428,34.2499733 18.8351285,36.6148515 19.3418881,38.9994369 C19.3463928,38.9994369 19.3503342,39 19.3548387,39 C30.0440881,39 38.7096774,30.3344107 38.7096774,19.6451613" id="Shape"></path>
                    </g>
                </g>
            </g>
            <g id="Imported-Layers-Copy" transform="translate(9.000000, 10.000000)" fill="#FFFFFF" sketch:type="MSShapeGroup">
                <path d="M17.1739833,7.83480872 C17.9733074,7.83480872 18.6239201,7.17622938 18.6239201,6.366283 C18.6239201,5.55633663 17.9733074,4.8970934 17.1739833,4.8970934 C16.3746591,4.8970934 15.7233826,5.55633663 15.7233826,6.366283 C15.7233826,7.17622938 16.3746591,7.83480872 17.1739833,7.83480872" id="Fill-1"></path>
                <path d="M9.314184,15.8366806 C12.563264,15.8366806 15.2068758,13.148588 15.2068758,9.84506906 C15.2068758,6.54155009 12.563264,3.85345758 9.314184,3.85345758 C6.06444015,3.85345758 3.4208283,6.54155009 3.4208283,9.84506906 C3.4208283,13.148588 6.06444015,15.8366806 9.314184,15.8366806 L9.314184,15.8366806 Z M4.95441529,9.84506906 C4.95441529,7.39398545 6.91023661,5.39965848 9.314184,5.39965848 C11.7174675,5.39965848 13.6726249,7.39398545 13.6726249,9.84506906 C13.6726249,12.2968166 11.7174675,14.2911435 9.314184,14.2911435 C6.91023661,14.2911435 4.95441529,12.2968166 4.95441529,9.84506906 L4.95441529,9.84506906 Z" id="Fill-2"></path>
                <path d="M19.2247409,2.80982176 L14.8258027,2.80982176 L14.0317897,1.73232753 C13.6122109,1.15939005 13.0386095,0.374671517 11.7055175,0.374671517 L6.92152275,0.374671517 C5.59639737,0.374671517 5.04337661,1.12553164 4.59790611,1.73033586 L3.80256532,2.80982176 L2.13752803,2.80982176 C0.960450225,2.80982176 0.00312016795,3.78109352 0.00312016795,4.97476858 L0.00312016795,15.4117907 C0.00312016795,16.6048018 0.960450225,17.5760736 2.13752803,17.5760736 L19.2247409,17.5760736 C20.4011548,17.5760736 21.357821,16.6048018 21.357821,15.4117907 L21.357821,4.97476858 C21.357821,3.78109352 20.4011548,2.80982176 19.2247409,2.80982176 L19.2247409,2.80982176 Z M1.53737104,4.97476858 C1.53737104,4.63352888 1.80624668,4.35602266 2.13752803,4.35602266 L4.57400605,4.35602266 L5.82942293,2.65115194 C6.20983217,2.13464515 6.36717421,1.92087242 6.92152275,1.92087242 L11.7055175,1.92087242 C12.2638494,1.92087242 12.4318136,2.14925074 12.799609,2.65181583 L14.054362,4.35602266 L19.2247409,4.35602266 C19.5560223,4.35602266 19.8248979,4.63352888 19.8248979,4.97476858 L19.8248979,15.4117907 C19.8248979,15.7523665 19.5560223,16.0298727 19.2247409,16.0298727 L2.13752803,16.0298727 C1.80624668,16.0298727 1.53737104,15.7523665 1.53737104,15.4117907 L1.53737104,4.97476858 L1.53737104,4.97476858 Z" id="Fill-3"></path>
                <path d="M9.314184,14.0972875 C11.6218673,14.0972875 13.4986856,12.1899302 13.4986856,9.84506906 C13.4986856,7.50087182 11.6218673,5.5935145 9.314184,5.5935145 C7.00716462,5.5935145 5.12968237,7.50087182 5.12968237,9.84506906 C5.12968237,12.1899302 7.00716462,14.0972875 9.314184,14.0972875 L9.314184,14.0972875 Z M6.66326936,9.84506906 C6.66326936,8.35264329 7.85229719,7.13905151 9.314184,7.13905151 C10.7754069,7.13905151 11.9644348,8.35264329 11.9644348,9.84506906 C11.9644348,11.3374948 10.7754069,12.5517505 9.314184,12.5517505 C7.85229719,12.5517505 6.66326936,11.3374948 6.66326936,9.84506906 L6.66326936,9.84506906 Z" id="Fill-4"></path>
            </g>
        </g>
    </g>
</svg>